<?xml version="1.0" encoding="utf-8"?>
<!-- Generator: Adobe Illustrator 27.5.0, SVG Export Plug-In . SVG Version: 6.00 Build 0)  -->
<svg version="1.1" xmlns="http://www.w3.org/2000/svg" xmlns:xlink="http://www.w3.org/1999/xlink" x="0px" y="0px"
	 viewBox="0 0 500 500" style="enable-background:new 0 0 500 500;" xml:space="preserve">
<g id="Background_Complete">
	<rect x="228.682" y="94.699" style="fill:#EBEBEB;" width="222.579" height="313.373"/>
	<g>
		<g>
			<g>
				<g>
					<path style="fill:#E0E0E0;" d="M422.359,60.022c2.288-1.382,4.723-2.431,7.235-3.144l1.49-7.161l12.099-0.212l1.741,7.104
						c2.536,0.625,5.007,1.587,7.341,2.888l6.115-4.008l8.705,8.406l-3.79,6.251c1.383,2.288,2.431,4.725,3.144,7.236l7.16,1.49
						l0.213,12.099l-7.104,1.742c-0.625,2.535-1.587,5.005-2.888,7.34l4.007,6.115l-8.404,8.706l-6.251-3.79
						c-2.288,1.383-4.724,2.43-7.236,3.144l-1.491,7.161l-12.099,0.212l-1.741-7.104c-2.535-0.625-5.006-1.587-7.341-2.888
						l-6.115,4.008l-8.706-8.405l3.79-6.251c-1.383-2.288-2.431-4.724-3.144-7.236l-7.161-1.49l-0.212-12.099l7.104-1.742
						c0.625-2.535,1.587-5.006,2.888-7.34l-4.008-6.115l8.405-8.706L422.359,60.022L422.359,60.022z M428.809,76.14
						c-4.98,5.158-4.835,13.376,0.323,18.355c5.158,4.98,13.376,4.835,18.355-0.323c4.979-5.158,4.836-13.376-0.323-18.355
						C442.006,70.838,433.788,70.983,428.809,76.14z"/>
				</g>
			</g>
			<g>
				<g>
					<g>
						<path style="fill:#E0E0E0;" d="M428.809,76.14c0,0,0.679-0.957,2.417-2.121c1.706-1.136,4.688-2.401,8.469-2.002
							c1.862,0.209,3.899,0.816,5.756,2.045c1.837,1.228,3.572,2.976,4.655,5.244c0.57,1.114,0.966,2.352,1.181,3.644
							c0.233,1.289,0.267,2.646,0.073,3.996c-0.329,2.712-1.611,5.384-3.604,7.484c-2.029,2.066-4.655,3.442-7.354,3.867
							c-1.343,0.242-2.7,0.256-3.997,0.068c-1.299-0.169-2.55-0.521-3.684-1.052c-2.306-1.003-4.114-2.675-5.405-4.468
							c-1.293-1.813-1.971-3.828-2.245-5.681c-0.532-3.765,0.628-6.789,1.704-8.534C427.876,76.852,428.809,76.14,428.809,76.14
							c0.07,0.059-0.784,0.852-1.784,2.634c-0.978,1.751-2.012,4.705-1.435,8.31c0.297,1.775,0.974,3.69,2.228,5.403
							c1.254,1.693,2.989,3.268,5.182,4.199c1.078,0.496,2.265,0.821,3.497,0.974c1.229,0.171,2.514,0.152,3.782-0.082
							c2.552-0.41,5.023-1.714,6.941-3.665c1.881-1.986,3.096-4.501,3.416-7.065c0.189-1.276,0.163-2.56-0.052-3.782
							c-0.196-1.224-0.562-2.399-1.096-3.459c-1.008-2.159-2.642-3.837-4.378-5.031c-1.755-1.193-3.693-1.803-5.477-2.037
							c-3.623-0.451-6.539,0.687-8.255,1.726C429.632,75.327,428.871,76.209,428.809,76.14z"/>
					</g>
				</g>
			</g>
			<g>
				<g>
					<g>
						<path style="fill:#E0E0E0;" d="M422.359,60.022c0,0.01-0.135-0.061-0.403-0.213c-0.294-0.17-0.688-0.398-1.199-0.693
							c-1.093-0.646-2.668-1.576-4.712-2.783l0.147-0.019c-2.139,2.242-4.952,5.189-8.354,8.754l0.022-0.234
							c1.221,1.848,2.58,3.901,4.032,6.099l0.073,0.11l-0.064,0.117c-1.188,2.152-2.187,4.603-2.841,7.292l-0.035,0.143
							l-0.145,0.036c-2.213,0.549-4.608,1.143-7.099,1.762l0.202-0.262c0.076,3.809,0.156,7.852,0.24,12.097l-0.233-0.281
							c2.217,0.457,4.66,0.96,7.163,1.476l0.182,0.038l0.051,0.179c0.665,2.336,1.704,4.819,3.123,7.154l0.101,0.166l-0.101,0.167
							c-1.172,1.939-2.465,4.078-3.781,6.256l-0.053-0.411c2.737,2.637,5.69,5.48,8.715,8.395l-0.431-0.04
							c1.903-1.25,3.994-2.623,6.111-4.014l0.179-0.117l0.187,0.104c2.134,1.189,4.628,2.205,7.254,2.848l0.212,0.051l0.052,0.212
							c0.547,2.225,1.144,4.652,1.746,7.103l-0.361-0.278c3.831-0.069,7.937-0.143,12.099-0.218l-0.355,0.294
							c0.47-2.262,0.977-4.703,1.488-7.161l0.046-0.221l0.216-0.061c2.383-0.674,4.85-1.716,7.138-3.101l0.006-0.004l0.195-0.116
							l0.19,0.116c2.099,1.273,4.185,2.537,6.251,3.791l-0.46,0.059c2.841-2.941,5.644-5.843,8.407-8.703l-0.043,0.458
							c-1.348-2.059-2.683-4.098-4.005-6.117l-0.121-0.185l0.108-0.193c1.285-2.302,2.24-4.751,2.857-7.249l0.053-0.212l0.212-0.051
							c2.403-0.587,4.769-1.165,7.105-1.736l-0.27,0.35c-0.068-4.13-0.135-8.165-0.201-12.098l0.272,0.329
							c-2.429-0.508-4.814-1.008-7.158-1.499l-0.198-0.042l-0.055-0.194c-0.725-2.565-1.783-4.975-3.099-7.16l-0.101-0.168
							l0.101-0.166c1.303-2.141,2.567-4.217,3.8-6.244l0.05,0.383c-3.056-2.963-5.941-5.76-8.688-8.423l0.354,0.033
							c-2.154,1.404-4.175,2.722-6.124,3.993l-0.136,0.089l-0.14-0.079c-2.437-1.363-4.88-2.285-7.27-2.884l-0.145-0.036
							l-0.034-0.143c-0.624-2.584-1.187-4.911-1.718-7.109l0.218,0.167c-4.687,0.062-8.681,0.114-12.1,0.159l0.16-0.133
							c-0.613,2.856-1.117,5.2-1.536,7.152l-0.016,0.071l-0.069,0.019c-2.56,0.715-4.362,1.55-5.533,2.128
							c-0.559,0.292-0.988,0.516-1.301,0.68C422.498,59.963,422.359,60.033,422.359,60.022c0.001-0.009,0.138-0.105,0.403-0.275
							c0.277-0.17,0.696-0.425,1.275-0.735c1.158-0.616,2.953-1.493,5.524-2.25l-0.084,0.09c0.394-1.957,0.867-4.306,1.444-7.17
							l0.026-0.13l0.135-0.003c3.418-0.075,7.411-0.162,12.098-0.265l0.175-0.004l0.043,0.172c0.546,2.195,1.123,4.518,1.765,7.097
							l-0.179-0.179c2.433,0.594,4.924,1.517,7.412,2.892l-0.276,0.01c1.943-1.281,3.958-2.608,6.105-4.023l0.19-0.125l0.165,0.159
							c2.757,2.651,5.654,5.437,8.722,8.387l0.178,0.171l-0.128,0.212c-1.227,2.031-2.483,4.111-3.779,6.257l0.001-0.333
							c1.352,2.229,2.441,4.69,3.189,7.311l-0.253-0.235c2.345,0.485,4.732,0.979,7.162,1.481l0.268,0.055l0.005,0.274
							c0.073,3.934,0.148,7.968,0.225,12.098l0.005,0.283l-0.275,0.068c-2.336,0.575-4.701,1.156-7.102,1.747l0.264-0.264
							c-0.629,2.561-1.604,5.071-2.919,7.432l-0.014-0.378c1.324,2.018,2.661,4.055,4.01,6.113l0.161,0.246l-0.204,0.212
							c-2.761,2.861-5.563,5.765-8.402,8.708l-0.206,0.214l-0.254-0.154c-2.067-1.253-4.153-2.517-6.252-3.789l0.385,0l-0.007,0.004
							c-2.346,1.421-4.877,2.489-7.32,3.179l0.262-0.281c-0.512,2.458-1.021,4.899-1.491,7.16l-0.06,0.289l-0.295,0.005
							c-4.162,0.071-8.268,0.141-12.099,0.207l-0.291,0.005l-0.069-0.283c-0.599-2.452-1.193-4.879-1.737-7.105l0.264,0.264
							c-2.69-0.661-5.243-1.706-7.426-2.929l0.366-0.013c-2.12,1.387-4.213,2.756-6.119,4.002l-0.232,0.152l-0.199-0.192
							c-3.019-2.922-5.964-5.772-8.695-8.416l-0.191-0.185l0.138-0.226c1.323-2.174,2.621-4.309,3.799-6.245l0,0.332
							c-1.443-2.39-2.496-4.931-3.165-7.318l0.233,0.216c-2.502-0.525-4.942-1.038-7.158-1.504l-0.229-0.048l-0.004-0.233
							c-0.065-4.245-0.126-8.289-0.184-12.099l-0.003-0.213l0.205-0.05c2.495-0.604,4.893-1.185,7.109-1.722l-0.179,0.179
							c0.682-2.73,1.712-5.212,2.934-7.388l0.008,0.226c-1.435-2.209-2.776-4.273-3.983-6.131l-0.083-0.128l0.105-0.107
							c3.443-3.525,6.29-6.44,8.455-8.657l0.067-0.069l0.08,0.05c1.998,1.243,3.537,2.201,4.605,2.866
							c0.504,0.32,0.894,0.568,1.184,0.752C422.224,59.92,422.359,60.012,422.359,60.022z"/>
					</g>
				</g>
			</g>
		</g>
		<g>
			<g>
				<g>
					<path style="fill:#F5F5F5;" d="M369.565,35.534c1.369-0.827,2.827-1.455,4.331-1.882l0.892-4.287l7.243-0.127l1.042,4.252
						c1.518,0.374,2.997,0.95,4.395,1.729l3.66-2.399l5.211,5.032l-2.269,3.742c0.828,1.37,1.455,2.828,1.882,4.332l4.286,0.892
						l0.127,7.242l-4.252,1.043c-0.374,1.517-0.95,2.996-1.729,4.394l2.399,3.661l-5.031,5.211l-3.742-2.269
						c-1.37,0.828-2.828,1.455-4.331,1.882l-0.892,4.287l-7.242,0.127l-1.042-4.253c-1.518-0.374-2.996-0.95-4.394-1.729
						l-3.66,2.399l-5.211-5.031l2.269-3.742c-0.828-1.369-1.455-2.827-1.882-4.331l-4.286-0.892l-0.127-7.242l4.253-1.043
						c0.374-1.517,0.95-2.996,1.729-4.394l-2.399-3.66l5.031-5.211L369.565,35.534L369.565,35.534z M373.426,45.182
						c-2.981,3.088-2.895,8.007,0.193,10.988c3.087,2.981,8.007,2.894,10.987-0.193c2.981-3.087,2.894-8.007-0.193-10.988
						C381.326,42.008,376.407,42.095,373.426,45.182z"/>
				</g>
			</g>
			<g>
				<g>
					<g>
						<path style="fill:#F5F5F5;" d="M373.426,45.182c0,0,0.406-0.573,1.447-1.27c1.021-0.68,2.806-1.437,5.069-1.199
							c1.114,0.125,2.334,0.489,3.445,1.224c1.1,0.735,2.138,1.781,2.787,3.139c0.341,0.667,0.578,1.408,0.707,2.181
							c0.14,0.772,0.159,1.584,0.044,2.392c-0.197,1.623-0.964,3.223-2.157,4.48c-1.214,1.237-2.786,2.061-4.402,2.315
							c-0.804,0.145-1.616,0.153-2.393,0.041c-0.778-0.101-1.526-0.312-2.205-0.63c-1.38-0.6-2.462-1.601-3.236-2.674
							c-0.774-1.085-1.18-2.291-1.344-3.4c-0.318-2.254,0.376-4.064,1.02-5.108C372.867,45.608,373.426,45.182,373.426,45.182
							c0.042,0.036-0.469,0.51-1.068,1.577c-0.585,1.048-1.204,2.816-0.859,4.974c0.178,1.063,0.583,2.209,1.334,3.234
							c0.75,1.014,1.789,1.956,3.102,2.514c0.645,0.297,1.356,0.492,2.093,0.583c0.736,0.103,1.504,0.091,2.264-0.049
							c1.528-0.245,3.007-1.026,4.155-2.194c1.126-1.189,1.853-2.694,2.045-4.229c0.113-0.764,0.098-1.532-0.031-2.264
							c-0.117-0.733-0.336-1.437-0.656-2.071c-0.603-1.292-1.582-2.297-2.621-3.011c-1.051-0.714-2.211-1.079-3.279-1.219
							c-2.169-0.27-3.914,0.411-4.941,1.033C373.919,44.695,373.463,45.223,373.426,45.182z"/>
					</g>
				</g>
			</g>
			<g>
				<g>
					<g>
						<path style="fill:#F5F5F5;" d="M369.565,35.534c0,0.006-0.081-0.036-0.241-0.127c-0.176-0.102-0.412-0.238-0.718-0.415
							c-0.654-0.386-1.597-0.943-2.82-1.666l0.088-0.012c-1.28,1.342-2.964,3.106-5.001,5.24l0.013-0.14
							c0.731,1.106,1.544,2.335,2.414,3.651l0.043,0.066l-0.038,0.07c-0.711,1.288-1.309,2.755-1.701,4.365l-0.021,0.086
							l-0.086,0.021c-1.325,0.329-2.758,0.684-4.25,1.055l0.121-0.157c0.045,2.28,0.093,4.701,0.144,7.242l-0.139-0.168
							c1.327,0.274,2.789,0.575,4.288,0.884l0.109,0.023l0.031,0.107c0.398,1.398,1.02,2.885,1.869,4.282l0.06,0.099l-0.06,0.1
							c-0.702,1.161-1.475,2.441-2.263,3.745l-0.032-0.246c1.638,1.578,3.406,3.28,5.217,5.025l-0.258-0.024
							c1.139-0.748,2.391-1.57,3.658-2.403l0.107-0.07l0.112,0.062c1.277,0.712,2.77,1.32,4.342,1.705l0.127,0.031l0.031,0.127
							c0.327,1.332,0.685,2.784,1.045,4.252l-0.216-0.166c2.293-0.041,4.751-0.085,7.242-0.13l-0.213,0.176
							c0.281-1.354,0.585-2.815,0.891-4.286l0.027-0.132l0.13-0.037c1.426-0.404,2.904-1.027,4.273-1.856l0.004-0.002l0.117-0.069
							l0.114,0.069c1.256,0.762,2.505,1.519,3.742,2.269l-0.275,0.036c1.701-1.761,3.379-3.498,5.032-5.21l-0.026,0.274
							c-0.807-1.232-1.606-2.453-2.397-3.661l-0.073-0.111l0.065-0.115c0.769-1.378,1.341-2.844,1.71-4.339l0.032-0.127l0.127-0.031
							c1.438-0.352,2.854-0.698,4.253-1.039l-0.162,0.21c-0.041-2.472-0.081-4.888-0.12-7.242l0.163,0.197
							c-1.454-0.304-2.882-0.604-4.285-0.897l-0.119-0.025l-0.033-0.116c-0.434-1.536-1.067-2.978-1.855-4.286l-0.06-0.1l0.06-0.1
							c0.78-1.282,1.536-2.524,2.275-3.738l0.03,0.229c-1.829-1.774-3.557-3.448-5.201-5.042l0.212,0.02
							c-1.29,0.84-2.499,1.629-3.666,2.39l-0.082,0.053l-0.084-0.047c-1.459-0.816-2.921-1.368-4.352-1.726l-0.086-0.022
							l-0.021-0.086c-0.374-1.547-0.71-2.94-1.028-4.256l0.13,0.1c-2.806,0.037-5.196,0.068-7.243,0.095l0.096-0.08
							c-0.367,1.71-0.668,3.112-0.919,4.281l-0.009,0.043l-0.041,0.012c-1.533,0.428-2.611,0.928-3.312,1.274
							c-0.335,0.175-0.591,0.309-0.779,0.407C369.648,35.498,369.565,35.54,369.565,35.534c0-0.006,0.083-0.063,0.241-0.164
							c0.166-0.102,0.416-0.255,0.763-0.44c0.693-0.369,1.768-0.894,3.306-1.347l-0.05,0.054c0.236-1.171,0.519-2.578,0.864-4.292
							l0.016-0.078l0.081-0.002c2.046-0.045,4.436-0.097,7.242-0.159l0.105-0.002l0.026,0.103c0.327,1.314,0.672,2.705,1.056,4.248
							l-0.107-0.107c1.456,0.355,2.948,0.908,4.437,1.731l-0.165,0.006c1.163-0.767,2.369-1.561,3.655-2.408l0.113-0.075
							l0.099,0.095c1.65,1.587,3.384,3.255,5.221,5.021l0.106,0.102l-0.077,0.127c-0.734,1.216-1.487,2.461-2.262,3.746l0-0.199
							c0.809,1.335,1.461,2.808,1.909,4.377l-0.151-0.141c1.404,0.29,2.833,0.586,4.287,0.887l0.16,0.033l0.003,0.164
							c0.044,2.355,0.089,4.77,0.134,7.242l0.003,0.169l-0.165,0.041c-1.398,0.344-2.814,0.692-4.251,1.046l0.158-0.158
							c-0.376,1.533-0.96,3.035-1.747,4.449l-0.008-0.226c0.792,1.208,1.592,2.428,2.401,3.659l0.097,0.147l-0.122,0.127
							c-1.653,1.713-3.33,3.451-5.03,5.213l-0.123,0.128l-0.152-0.092c-1.237-0.75-2.486-1.507-3.742-2.268l0.23,0l-0.004,0.002
							c-1.404,0.851-2.919,1.49-4.382,1.903l0.157-0.169c-0.307,1.471-0.611,2.933-0.893,4.286l-0.036,0.173l-0.177,0.003
							c-2.492,0.043-4.949,0.085-7.243,0.124l-0.174,0.003l-0.041-0.169c-0.359-1.468-0.714-2.921-1.04-4.253l0.158,0.158
							c-1.61-0.396-3.139-1.021-4.445-1.753l0.219-0.008c-1.269,0.83-2.522,1.65-3.663,2.396l-0.139,0.091l-0.119-0.115
							c-1.807-1.749-3.57-3.455-5.205-5.038l-0.114-0.11l0.082-0.136c0.792-1.302,1.569-2.58,2.274-3.738l0,0.199
							c-0.864-1.431-1.494-2.952-1.895-4.38l0.139,0.13c-1.497-0.314-2.958-0.622-4.285-0.901l-0.137-0.029l-0.002-0.14
							c-0.039-2.541-0.076-4.962-0.111-7.243l-0.002-0.127l0.123-0.03c1.493-0.362,2.929-0.709,4.255-1.031l-0.107,0.107
							c0.408-1.634,1.025-3.12,1.756-4.423l0.005,0.135c-0.859-1.322-1.662-2.558-2.384-3.67l-0.049-0.076l0.063-0.064
							c2.061-2.11,3.765-3.855,5.061-5.182l0.04-0.041l0.048,0.03c1.196,0.744,2.117,1.317,2.757,1.715
							c0.302,0.192,0.535,0.34,0.709,0.45C369.484,35.472,369.565,35.528,369.565,35.534z"/>
					</g>
				</g>
			</g>
		</g>
	</g>
	<g>
		<g>
			<rect x="44.65" y="51.486" style="fill:#E0E0E0;" width="130.915" height="216.701"/>
		</g>
		<g>
			<rect x="40.296" y="51.486" style="fill:#EBEBEB;" width="130.915" height="216.701"/>
		</g>
		<g>
			<rect x="45.87" y="55.881" style="fill:#FAFAFA;" width="119.766" height="207.912"/>
		</g>
		<g>
			<g>
				<rect x="68.671" y="82.897" style="fill:#EBEBEB;" width="73.646" height="153.879"/>
			</g>
			<g>
				<path style="fill:#E0E0E0;" d="M68.671,182.324c-0.17-14.374,12.754-28.407,26.989-30.414c6.788-0.957,13.999,0.39,20.342-2.21
					c11.321-4.642,14.923-19.683,26.316-24.144l0.52,111.221H68.671V182.324z"/>
			</g>
		</g>
	</g>
	<g>
		<g>
			<path style="fill:#F5F5F5;" d="M355.867,419.617c1.505-0.909,3.106-1.599,4.758-2.068l0.98-4.71l7.958-0.14l1.145,4.672
				c1.668,0.411,3.293,1.043,4.828,1.9l4.022-2.636l5.726,5.528l-2.493,4.111c0.91,1.505,1.599,3.107,2.068,4.759l4.709,0.98
				l0.14,7.957l-4.672,1.146c-0.411,1.667-1.044,3.292-1.9,4.828l2.636,4.022l-5.528,5.726l-4.112-2.493
				c-1.505,0.909-3.107,1.599-4.759,2.068l-0.98,4.71l-7.957,0.139l-1.145-4.672c-1.667-0.411-3.292-1.044-4.828-1.9l-4.022,2.636
				l-5.726-5.528l2.493-4.111c-0.909-1.505-1.599-3.107-2.068-4.759l-4.71-0.98l-0.14-7.957l4.672-1.146
				c0.411-1.667,1.044-3.292,1.9-4.828l-2.636-4.022l5.528-5.726L355.867,419.617L355.867,419.617z M360.109,430.218
				c-3.275,3.392-3.18,8.797,0.212,12.073c3.392,3.275,8.797,3.18,12.072-0.212c3.275-3.392,3.18-8.797-0.212-12.072
				C368.789,426.731,363.384,426.826,360.109,430.218z"/>
		</g>
	</g>
</g>
<g id="Background_Simple" style="display:none;">
	<path style="display:inline;fill:#F5F5F5;" d="M451.367,98.019l-2.596-4.278c-21.882-36.06-61.446-57.797-103.159-55.159
		c-5.362,0.339-10.701,1.065-15.968,2.193c-37.926,8.118-70.925,36.798-84.604,73.528c-8.044,21.602-10.292,46.473-25.558,63.62
		c-19.868,22.315-53.598,23.016-83.253,22.091c-29.656-0.925-63.408-0.136-83.179,22.267
		c-12.382,14.031-16.317,33.983-15.319,52.774c2.644,49.747,37.308,94.229,81.393,116.339c44.085,22.11,95.99,24.09,144.238,14.364
		c67.59-13.625,131.868-51.042,170.503-108.834C472.501,239.131,482.279,160.395,451.367,98.019z"/>
	
		<ellipse transform="matrix(0.7071 -0.7071 0.7071 0.7071 -2.841 125.3185)" style="display:inline;fill:#F5F5F5;" cx="149.852" cy="66.089" rx="18.638" ry="18.638"/>
	
		<ellipse transform="matrix(0.7355 -0.6775 0.6775 0.7355 -202.6766 339.5058)" style="display:inline;fill:#F5F5F5;" cx="333.475" cy="429.326" rx="18.638" ry="18.638"/>
</g>
<g id="Table">
	<g>
		<path style="fill:#263238;" d="M470.797,466.91c0,0,0.472-0.019,1.431-0.029c0.97-0.006,2.413-0.015,4.355-0.028v0.113
			c-22.5,0.117-114.133,0.204-223.679,0.204c-63.378-0.03-120.744-0.057-162.279-0.076c-20.757-0.035-37.555-0.063-49.177-0.083
			c-5.799-0.021-10.303-0.038-13.37-0.049c-1.521-0.011-2.683-0.02-3.477-0.026c-0.783-0.009-1.185-0.027-1.185-0.027
			s0.401-0.018,1.185-0.027c0.794-0.006,1.956-0.015,3.477-0.026c3.067-0.011,7.572-0.028,13.37-0.049
			c11.621-0.02,28.42-0.048,49.177-0.083c41.536-0.02,98.902-0.047,162.279-0.076c109.546,0,201.179,0.087,223.679,0.204v0.114
			c-1.942-0.013-3.386-0.022-4.355-0.028C471.269,466.93,470.797,466.91,470.797,466.91z"/>
	</g>
</g>
<g id="Form">
	<g>
		<g>
			<g>
				<rect x="209.255" y="78.365" style="fill:#FFFFFF;" width="224.133" height="316.251"/>
				<g>
					<path style="fill:#263238;" d="M433.389,394.617c-0.002-2.103-0.097-129.422-0.237-316.251l0.237,0.237
						c-67.778,0.007-143.904,0.015-224.107,0.024h-0.026l0.26-0.26c-0.019,118.511-0.036,228.1-0.05,316.251l-0.211-0.211
						C345.392,394.534,431.655,394.615,433.389,394.617c-1.733,0.002-87.997,0.083-224.133,0.211l-0.211,0v-0.211
						c-0.014-88.152-0.031-197.74-0.05-316.251v-0.261h0.261h0.026c80.203,0.008,156.329,0.016,224.107,0.024h0.237l0,0.237
						C433.486,265.194,433.391,392.515,433.389,394.617z"/>
				</g>
			</g>
			<path style="fill:#F5F5F5;" d="M313.347,310.275h-82.306c-3.693,0-6.688-2.994-6.688-6.688v-8.562
				c0-3.693,2.994-6.688,6.688-6.688h82.306c3.694,0,6.688,2.994,6.688,6.688v8.562C320.035,307.28,317.041,310.275,313.347,310.275
				z"/>
			<path style="fill:#F5F5F5;" d="M413.179,310.275h-80.183c-3.693,0-6.688-2.994-6.688-6.688v-8.562
				c0-3.693,2.994-6.688,6.688-6.688h80.183c3.694,0,6.688,2.994,6.688,6.688v8.562C419.867,307.28,416.873,310.275,413.179,310.275
				z"/>
			<path style="fill:#F5F5F5;" d="M414.505,355.242H230.589c-3.693,0-6.688-2.994-6.688-6.688v-8.562
				c0-3.694,2.994-6.688,6.688-6.688h183.915c3.693,0,6.688,2.994,6.688,6.688v8.562
				C421.192,352.248,418.198,355.242,414.505,355.242z"/>
			<g>
				<path style="fill:#263238;" d="M268.284,279.51c0,0.144-9.248,0.26-20.653,0.26c-11.409,0-20.655-0.117-20.655-0.26
					s9.246-0.26,20.655-0.26C259.037,279.25,268.284,279.367,268.284,279.51z"/>
			</g>
			<g>
				<path style="fill:#263238;" d="M366,279.51c0,0.144-7.282,0.26-16.262,0.26c-8.983,0-16.263-0.117-16.263-0.26
					s7.28-0.26,16.263-0.26C358.718,279.25,366,279.367,366,279.51z"/>
			</g>
			<g>
				<path style="fill:#263238;" d="M294.499,324.25c0,0.144-15,0.26-33.5,0.26c-18.506,0-33.503-0.117-33.503-0.26
					c0-0.144,14.997-0.26,33.503-0.26C279.499,323.989,294.499,324.106,294.499,324.25z"/>
			</g>
			<path style="fill:#E0E0E0;" d="M414.684,262.515H226.887c-3.594,0-6.508-2.914-6.508-6.508v-10.965
				c0-3.594,2.914-6.508,6.508-6.508h187.797c3.594,0,6.508,2.914,6.508,6.508v10.965
				C421.192,259.601,418.279,262.515,414.684,262.515z"/>
			<g>
				<path style="fill:#263238;" d="M363.559,250.525c0,0.144-17.817,0.26-39.791,0.26c-21.981,0-39.794-0.117-39.794-0.26
					c0-0.144,17.813-0.26,39.794-0.26C345.742,250.264,363.559,250.381,363.559,250.525z"/>
			</g>
			<path style="fill:#E0E0E0;" d="M414.684,116.708H226.887c-3.594,0-6.508-2.914-6.508-6.508V99.235
				c0-3.595,2.914-6.508,6.508-6.508h187.797c3.594,0,6.508,2.914,6.508,6.508V110.2
				C421.192,113.794,418.279,116.708,414.684,116.708z"/>
			<g>
				<path style="fill:#263238;" d="M363.559,104.717c0,0.144-17.817,0.26-39.791,0.26c-21.981,0-39.794-0.117-39.794-0.26
					c0-0.144,17.813-0.26,39.794-0.26C345.742,104.457,363.559,104.573,363.559,104.717z"/>
			</g>
			<g>
				<path style="fill:#EBEBEB;" d="M433.389,122.515c0,0.144-50.223,0.26-112.162,0.26c-61.961,0-112.173-0.117-112.173-0.26
					c0-0.144,50.212-0.26,112.173-0.26C383.166,122.254,433.389,122.371,433.389,122.515z"/>
			</g>
			<g>
				<path style="fill:#EBEBEB;" d="M433.389,228.602c0,0.144-50.223,0.26-112.162,0.26c-61.961,0-112.173-0.117-112.173-0.26
					c0-0.144,50.212-0.26,112.173-0.26C383.166,228.342,433.389,228.459,433.389,228.602z"/>
			</g>
			<path style="fill:#F5F5F5;" d="M313.347,168.494h-82.306c-3.693,0-6.688-2.994-6.688-6.688v-8.562
				c0-3.693,2.994-6.688,6.688-6.688h82.306c3.694,0,6.688,2.994,6.688,6.688v8.562C320.035,165.5,317.041,168.494,313.347,168.494z
				"/>
			<path style="fill:#F5F5F5;" d="M413.179,168.494h-80.183c-3.693,0-6.688-2.994-6.688-6.688v-8.562
				c0-3.693,2.994-6.688,6.688-6.688h80.183c3.694,0,6.688,2.994,6.688,6.688v8.562C419.867,165.5,416.873,168.494,413.179,168.494z
				"/>
			<path style="fill:#F5F5F5;" d="M414.505,213.461H230.589c-3.693,0-6.688-2.994-6.688-6.688v-8.562
				c0-3.693,2.994-6.688,6.688-6.688h183.915c3.693,0,6.688,2.994,6.688,6.688v8.562
				C421.192,210.467,418.198,213.461,414.505,213.461z"/>
			<g>
				<path style="fill:#263238;" d="M268.284,137.73c0,0.144-9.248,0.26-20.653,0.26c-11.409,0-20.655-0.117-20.655-0.26
					c0-0.144,9.246-0.26,20.655-0.26C259.037,137.469,268.284,137.586,268.284,137.73z"/>
			</g>
			<g>
				<path style="fill:#263238;" d="M366,137.73c0,0.144-7.282,0.26-16.262,0.26c-8.983,0-16.263-0.117-16.263-0.26
					c0-0.144,7.28-0.26,16.263-0.26C358.718,137.469,366,137.586,366,137.73z"/>
			</g>
			<g>
				<path style="fill:#263238;" d="M294.499,182.469c0,0.144-15,0.26-33.5,0.26c-18.506,0-33.503-0.117-33.503-0.26
					c0-0.144,14.997-0.26,33.503-0.26C279.499,182.209,294.499,182.326,294.499,182.469z"/>
			</g>
			<g>
				<path style="fill:#263238;" d="M414.27,368.573c0,0.144-14.631,0.26-32.676,0.26c-18.051,0-32.679-0.117-32.679-0.26
					c0-0.144,14.628-0.26,32.679-0.26C399.639,368.313,414.27,368.43,414.27,368.573z"/>
			</g>
		</g>
		<g>
			<path style="fill:#FF725E;" d="M305.335,159.832c0,0-0.519,0.187-1.548,0.388c-1.028,0.188-2.576,0.39-4.569,0.258
				c-1.981-0.148-4.431-0.611-6.977-1.911c-0.628-0.34-1.251-0.769-1.775-1.344c-0.53-0.565-0.922-1.314-1.068-2.133
				c-0.144-0.81-0.047-1.748,0.515-2.48c0.568-0.725,1.589-1.076,2.528-0.804c0.47,0.134,0.891,0.486,1.111,0.937
				c0.226,0.447,0.276,0.976,0.189,1.459c-0.173,0.976-0.719,1.841-1.383,2.566c-1.303,1.473-3.026,2.69-5.018,3.428
				c-1.984,0.74-4.245,1.017-6.479,0.588c-1.113-0.223-2.234-0.637-3.168-1.393c-0.914-0.739-1.672-1.895-1.541-3.206
				c0.061-0.632,0.312-1.233,0.69-1.743c0.377-0.504,0.9-0.955,1.576-1.101c0.675-0.173,1.416,0.117,1.871,0.616
				c0.465,0.511,0.661,1.195,0.671,1.848c0.015,0.658-0.14,1.318-0.461,1.904c-0.331,0.595-0.818,1.054-1.358,1.425
				c-1.093,0.741-2.361,1.081-3.579,1.436c-2.429,0.69-5.084,1.433-7.783,0.827c-1.318-0.313-2.602-0.939-3.581-1.942
				c-0.973-0.985-1.637-2.376-1.552-3.825c0.037-0.887,0.374-1.814,1.083-2.428c0.748-0.619,1.81-0.683,2.64-0.281
				c0.415,0.2,0.799,0.527,0.997,0.971c0.199,0.44,0.235,0.933,0.119,1.381c-0.235,0.913-0.903,1.552-1.562,2.06
				c-2.737,1.898-5.858,3.027-9.001,3.421c-1.557,0.195-3.205,0.214-4.688-0.411c-1.469-0.618-2.645-1.949-2.882-3.532
				c-0.251-1.59,0.81-3.26,2.384-3.597c0.786-0.16,1.648,0.157,2.134,0.766c0.507,0.594,0.719,1.353,0.75,2.078
				c0.038,0.731-0.123,1.462-0.457,2.108c-0.361,0.636-0.859,1.145-1.421,1.553c-1.132,0.811-2.432,1.21-3.669,1.537
				c-2.452,0.652-5.035,1.107-7.321,0.265c-1.117-0.419-2.092-1.128-2.781-2.026c-0.683-0.898-1.083-2-0.986-3.084
				c0.103-1.071,0.611-2.036,1.335-2.716c0.72-0.68,1.748-1.033,2.669-0.798l0.108,0.028l0.003,0.107
				c0.069,2.199-0.856,4.066-1.961,5.318c-1.101,1.288-2.41,2.009-3.504,2.388c-1.111,0.375-2.028,0.376-2.626,0.335
				c-0.597-0.083-0.898-0.169-0.898-0.169c-0.013-0.097,1.277,0.439,3.472-0.314c1.062-0.394,2.328-1.119,3.383-2.389
				c1.06-1.234,1.928-3.054,1.842-5.156l0.111,0.135c-0.814-0.197-1.721,0.115-2.383,0.746c-0.661,0.63-1.126,1.536-1.212,2.512
				c-0.153,1.999,1.457,3.97,3.561,4.72c2.149,0.781,4.646,0.348,7.077-0.314c1.221-0.327,2.472-0.726,3.517-1.484
				c0.516-0.375,0.975-0.858,1.285-1.409c0.288-0.563,0.434-1.22,0.396-1.874c-0.028-0.648-0.228-1.314-0.645-1.796
				c-0.4-0.495-1.07-0.731-1.691-0.606c-1.274,0.265-2.23,1.718-1.994,3.066c0.203,1.373,1.265,2.592,2.594,3.143
				c1.353,0.569,2.912,0.561,4.433,0.367c3.053-0.383,6.125-1.508,8.752-3.333c0.616-0.469,1.195-1.061,1.369-1.771
				c0.192-0.711-0.148-1.463-0.837-1.76c-0.657-0.325-1.526-0.257-2.076,0.208c-0.569,0.493-0.869,1.272-0.901,2.06
				c-0.076,1.281,0.512,2.527,1.403,3.434c0.893,0.919,2.091,1.508,3.327,1.802c2.519,0.573,5.102-0.123,7.524-0.813
				c1.222-0.352,2.441-0.687,3.436-1.362c0.49-0.332,0.932-0.758,1.204-1.251c0.275-0.5,0.416-1.083,0.402-1.651
				c-0.006-0.566-0.18-1.132-0.538-1.525c-0.358-0.386-0.9-0.602-1.404-0.471c-1.031,0.246-1.78,1.367-1.891,2.416
				c-0.121,1.071,0.528,2.122,1.36,2.792c0.847,0.693,1.904,1.093,2.959,1.307c2.139,0.419,4.322,0.163,6.242-0.544
				c1.927-0.704,3.6-1.873,4.868-3.291c0.641-0.687,1.146-1.501,1.303-2.362c0.178-0.844-0.23-1.767-1.028-1.981
				c-0.768-0.234-1.672,0.063-2.143,0.669c-0.486,0.618-0.591,1.461-0.464,2.207c0.248,1.553,1.46,2.628,2.657,3.278
				c2.475,1.296,4.899,1.789,6.853,1.965c1.97,0.162,3.509-0.006,4.536-0.16c0.514-0.086,0.905-0.156,1.166-0.215
				C305.197,159.846,305.333,159.823,305.335,159.832z"/>
		</g>
		<g>
			<path style="fill:#FF725E;" d="M403.169,158.639c0,0-0.4,0.282-1.257,0.625c-0.852,0.342-2.174,0.764-3.938,0.826
				c-1.746,0.059-3.963-0.242-6.179-1.444c-1.086-0.601-2.246-1.387-3.008-2.643c-0.365-0.626-0.624-1.371-0.54-2.173
				c0.098-0.78,0.483-1.553,1.161-2.062c0.337-0.249,0.767-0.417,1.218-0.403c0.45,0.008,0.884,0.212,1.213,0.516
				c0.645,0.63,0.914,1.563,0.81,2.464c-0.123,0.911-0.624,1.724-1.255,2.379c-0.637,0.659-1.389,1.193-2.188,1.67
				c-1.607,0.943-3.479,1.579-5.463,1.748c-1.966,0.154-4.103-0.06-5.973-1.115c-0.924-0.517-1.779-1.258-2.315-2.24
				c-0.264-0.491-0.466-1.011-0.53-1.595c-0.051-0.576,0.045-1.155,0.246-1.69c0.403-1.059,1.216-2.028,2.382-2.403
				c0.577-0.183,1.257-0.132,1.797,0.18c0.555,0.286,0.954,0.799,1.204,1.346c0.487,1.108,0.415,2.427-0.132,3.502
				c-0.533,1.087-1.422,1.936-2.381,2.621c-1.939,1.364-4.289,2.175-6.712,2.32c-2.424,0.138-4.851-0.39-6.945-1.493
				c-1.043-0.554-2.021-1.234-2.824-2.105c-0.794-0.859-1.414-1.982-1.401-3.212c0.04-1.226,0.769-2.391,1.926-2.851
				c0.576-0.232,1.292-0.143,1.796,0.215c0.515,0.355,0.831,0.903,0.992,1.459c0.347,1.138-0.037,2.358-0.674,3.235
				c-0.636,0.908-1.466,1.591-2.302,2.218c-3.397,2.494-7.664,3.25-11.297,2.416c-1.807-0.415-3.539-1.286-4.581-2.744
				c-0.518-0.708-0.847-1.576-0.849-2.432c-0.024-0.854,0.201-1.682,0.603-2.393c0.411-0.701,1.059-1.283,1.847-1.472
				c0.783-0.196,1.6,0.04,2.187,0.488c1.169,0.923,1.658,2.395,1.475,3.667c-0.191,1.284-0.948,2.3-1.766,2.991
				c-0.834,0.695-1.757,1.109-2.612,1.325c-1.724,0.418-3.107,0.297-4.018,0.251c-0.436-0.038-0.78-0.069-1.042-0.092
				c-0.234-0.026-0.354-0.044-0.353-0.053c0.001-0.009,0.122-0.009,0.357,0c0.262,0.01,0.607,0.023,1.043,0.04
				c0.909,0.013,2.287,0.097,3.96-0.342c0.828-0.225,1.712-0.64,2.503-1.318c0.776-0.674,1.476-1.65,1.639-2.844
				c0.161-1.164-0.322-2.544-1.384-3.36c-0.532-0.395-1.233-0.586-1.906-0.413c-0.672,0.166-1.24,0.675-1.612,1.317
				c-0.739,1.293-0.768,3.095,0.254,4.405c0.966,1.339,2.61,2.168,4.351,2.557c3.513,0.788,7.646,0.038,10.918-2.382
				c0.806-0.607,1.608-1.278,2.184-2.11c0.584-0.82,0.894-1.853,0.598-2.819c-0.137-0.473-0.404-0.916-0.796-1.183
				c-0.39-0.268-0.892-0.333-1.341-0.155c-0.909,0.347-1.574,1.38-1.589,2.385c-0.011,1.043,0.528,2.057,1.271,2.856
				c0.746,0.809,1.686,1.465,2.687,1.994c2.008,1.055,4.341,1.564,6.672,1.431c2.33-0.14,4.585-0.919,6.441-2.222
				c0.918-0.654,1.742-1.451,2.22-2.426c0.492-0.957,0.543-2.112,0.128-3.067c-0.393-0.958-1.435-1.576-2.392-1.249
				c-0.953,0.296-1.71,1.158-2.061,2.096c-0.178,0.472-0.261,0.976-0.22,1.466c0.05,0.481,0.233,0.973,0.468,1.408
				c0.478,0.882,1.257,1.57,2.123,2.058c1.746,0.996,3.797,1.217,5.698,1.076c1.913-0.155,3.725-0.76,5.282-1.664
				c0.775-0.456,1.509-0.974,2.106-1.587c0.595-0.608,1.046-1.352,1.157-2.14c0.1-0.779-0.147-1.616-0.676-2.133
				c-0.533-0.535-1.38-0.542-1.948-0.096c-0.582,0.425-0.943,1.122-1.031,1.806c-0.081,0.685,0.143,1.386,0.478,1.964
				c0.696,1.177,1.808,1.959,2.863,2.556c2.148,1.196,4.315,1.525,6.033,1.497c1.735-0.029,3.049-0.414,3.905-0.721
				C402.736,158.858,403.152,158.607,403.169,158.639z"/>
		</g>
		<g>
			<path style="fill:#FF725E;" d="M310.204,202.808c0.004,0.008-0.126,0.074-0.384,0.194c-0.281,0.127-0.661,0.3-1.148,0.521
				c-1.013,0.448-2.511,1.104-4.484,1.845c-1.974,0.727-4.444,1.537-7.42,1.975c-1.485,0.219-3.094,0.329-4.798,0.291
				c-1.691-0.055-3.531-0.125-5.34-0.807c-1.792-0.642-3.509-2.129-4.056-4.225c-0.277-1.023-0.198-2.218,0.393-3.189
				c0.557-0.958,1.546-1.772,2.764-1.863c1.232-0.095,2.376,0.768,2.87,1.853c0.533,1.077,0.649,2.376,0.253,3.557
				c-0.383,1.174-1.166,2.191-2.094,3.005c-0.932,0.822-2.003,1.479-3.141,2.025c-2.259,1.07-4.985,1.66-7.592,0.887
				c-2.595-0.757-4.73-3.044-5.275-5.814c-0.121-0.694-0.132-1.412-0.014-2.117c0.095-0.705,0.401-1.415,0.86-1.981
				c0.453-0.56,1.101-1.077,1.926-1.111c0.818-0.033,1.592,0.542,1.847,1.29c0.495,1.486-0.002,3.019-0.738,4.251
				c-0.739,1.243-1.676,2.383-2.803,3.321c-2.227,1.901-5.143,2.956-8.005,2.845c-2.854-0.087-5.638-1.169-7.666-3.086
				c-0.987-0.967-1.797-2.187-2.031-3.577c-0.111-0.681-0.115-1.413,0.134-2.083c0.241-0.663,0.654-1.246,1.172-1.704
				c0.514-0.46,1.161-0.787,1.863-0.876c0.705-0.113,1.446,0.153,1.969,0.615c1.041,0.984,1.225,2.495,0.895,3.747
				c-0.352,1.274-1.185,2.302-2.074,3.142c-0.905,0.835-1.878,1.566-2.908,2.172c-2.058,1.215-4.307,1.95-6.531,2.219
				c-2.223,0.259-4.431,0.103-6.417-0.576c-0.987-0.348-1.911-0.867-2.64-1.581c-0.741-0.7-1.238-1.632-1.43-2.583
				c-0.2-0.95-0.139-1.95,0.26-2.808c0.384-0.855,1.195-1.526,2.1-1.636c0.89-0.135,1.785,0.135,2.44,0.669
				c0.662,0.543,0.948,1.457,0.776,2.227c-0.149,0.787-0.635,1.414-1.155,1.889c-0.527,0.481-1.115,0.832-1.693,1.123
				c-1.159,0.564-2.267,0.971-3.285,1.255c-2.038,0.576-3.691,0.693-4.798,0.713c-1.111,0.013-1.69-0.072-1.69-0.072
				c0.001-0.009,0.146-0.012,0.43-0.009c0.283,0.002,0.705,0.002,1.257-0.024c1.1-0.054,2.737-0.203,4.745-0.803
				c1.003-0.296,2.094-0.713,3.23-1.283c0.559-0.289,1.126-0.637,1.621-1.1c0.491-0.457,0.927-1.043,1.051-1.743
				c0.142-0.698-0.108-1.456-0.69-1.936c-0.58-0.467-1.399-0.709-2.188-0.58c-0.799,0.108-1.481,0.678-1.834,1.458
				c-0.354,0.775-0.409,1.699-0.217,2.582c0.339,1.824,1.951,3.238,3.844,3.863c1.906,0.642,4.072,0.788,6.231,0.526
				c2.164-0.271,4.352-0.995,6.35-2.184c0.999-0.592,1.945-1.308,2.818-2.118c0.857-0.813,1.623-1.782,1.934-2.928
				c0.298-1.111,0.099-2.468-0.759-3.258c-0.865-0.826-2.291-0.558-3.177,0.272c-0.455,0.404-0.82,0.922-1.027,1.497
				c-0.213,0.57-0.21,1.209-0.109,1.83c0.209,1.249,0.956,2.386,1.889,3.297c1.913,1.808,4.599,2.858,7.326,2.934
				c2.738,0.103,5.514-0.901,7.655-2.726c1.081-0.899,1.981-1.994,2.69-3.185c0.356-0.604,0.637-1.207,0.767-1.874
				c0.14-0.651,0.155-1.343-0.062-1.926c-0.199-0.584-0.767-0.979-1.349-0.961c-0.588,0.015-1.146,0.424-1.54,0.917
				c-0.831,1.001-0.945,2.421-0.745,3.683c0.495,2.56,2.506,4.73,4.914,5.429c2.443,0.732,5.055,0.187,7.246-0.844
				c2.172-1.045,4.267-2.563,5.006-4.741c0.362-1.057,0.26-2.245-0.217-3.215c-0.449-0.981-1.419-1.693-2.445-1.62
				c-1.023,0.066-1.926,0.778-2.431,1.643c-0.534,0.868-0.612,1.926-0.363,2.879c0.497,1.94,2.085,3.355,3.798,3.98
				c1.729,0.666,3.538,0.753,5.216,0.819c1.685,0.051,3.277-0.044,4.75-0.248c2.949-0.406,5.413-1.182,7.391-1.877
				c1.977-0.71,3.486-1.335,4.512-1.752c0.496-0.201,0.883-0.357,1.168-0.473C310.063,202.849,310.2,202.8,310.204,202.808z"/>
		</g>
	</g>
</g>
<g id="Plant">
	<g>
		<g>
			<g>
				<path style="fill:#455A64;" d="M405.039,422.83c0,0-23.011-26.484-31.695-52.969c-8.683-26.484-4.559-23.445-4.559-23.445
					s11.723,25.727,20.623,38.154c8.901,12.427,24.748,30.662,24.748,30.662L405.039,422.83z"/>
			</g>
			<g>
				<path style="fill:#455A64;" d="M409.625,350.542c-0.742-1.293-2.718-0.621-2.496,0.853c1.403,9.303,4.435,31.134,4.316,45.293
					c-0.155,18.394,0.006,25.504,0.006,25.504h9.578c0,0-1.7-38.024-3.864-49.617C415.647,364.446,412.427,355.422,409.625,350.542z
					"/>
			</g>
			<g>
				<path style="fill:#455A64;" d="M414.846,419.1c0,0,6.028-12.675,7.883-28.595c0.789-6.771-0.618-15.921-2.711-28.132
					c-1.014-5.915-1.243-10.415-1.211-13.536c0.025-2.358,3.137-3.129,4.29-1.072c1.156,2.063,4.501,9.109,5.351,13.526
					c2.318,12.057,4.946,18.085,2.937,29.523c-2.009,11.438-9.429,29.059-9.429,29.059L414.846,419.1z"/>
			</g>
			<g>
				<path style="fill:#455A64;" d="M423.473,419.874c0,0,25.265-54.296,27.016-62.351c1.751-8.055,7.705-26.617,8.405-25.566
					c0.701,1.051,1.751,10.857-2.802,22.064c-4.553,11.207-23.993,67.507-23.993,67.507h-8.627"/>
			</g>
			<g>
				<g>
					<path style="fill:#263238;" d="M412.08,417.444c-0.011,0.015-0.255-0.153-0.708-0.486c-0.448-0.34-1.129-0.818-1.957-1.494
						c-1.682-1.321-4.042-3.331-6.79-5.994c-5.515-5.296-12.379-13.463-18.33-23.526c-5.963-10.061-9.974-19.901-12.512-27.103
						c-1.271-3.606-2.198-6.558-2.799-8.609c-0.309-1.023-0.521-1.825-0.671-2.368c-0.146-0.543-0.214-0.831-0.196-0.836
						c0.018-0.005,0.121,0.272,0.3,0.805c0.191,0.581,0.446,1.359,0.767,2.336c0.662,2.03,1.643,4.959,2.958,8.542
						c2.625,7.156,6.678,16.938,12.617,26.957c5.926,10.021,12.707,18.182,18.133,23.529c2.704,2.688,5.018,4.735,6.655,6.103
						c0.806,0.7,1.465,1.203,1.891,1.571C411.87,417.233,412.091,417.429,412.08,417.444z"/>
				</g>
			</g>
			<g>
				<g>
					<path style="fill:#263238;" d="M414.844,391.397c-0.037,0.003-0.116-0.565-0.227-1.593c-0.12-1.124-0.277-2.589-0.466-4.352
						c-0.4-3.673-1.024-8.739-1.917-14.304c-0.897-5.566-1.892-10.573-2.663-14.186c-0.374-1.734-0.684-3.173-0.922-4.279
						c-0.217-1.011-0.32-1.575-0.284-1.584c0.036-0.009,0.208,0.537,0.488,1.533c0.283,0.996,0.657,2.446,1.09,4.245
						c0.868,3.598,1.925,8.606,2.824,14.185c0.895,5.578,1.46,10.664,1.764,14.353c0.153,1.844,0.252,3.339,0.295,4.373
						C414.873,390.822,414.881,391.394,414.844,391.397z"/>
				</g>
			</g>
			<g>
				<g>
					<path style="fill:#263238;" d="M420.762,347.34c0.017-0.007,0.12,0.231,0.298,0.69c0.192,0.511,0.443,1.181,0.757,2.017
						c0.334,0.875,0.719,1.954,1.084,3.233c0.376,1.275,0.863,2.712,1.228,4.347c0.2,0.815,0.408,1.667,0.626,2.553
						c0.212,0.889,0.362,1.829,0.556,2.795c0.412,1.928,0.668,4.018,0.974,6.212c0.494,4.402,0.764,9.275,0.603,14.389
						c-0.206,5.114-0.824,9.957-1.632,14.312c-0.463,2.167-0.867,4.233-1.417,6.127c-0.262,0.949-0.479,1.876-0.755,2.748
						c-0.28,0.869-0.549,1.704-0.807,2.502c-0.482,1.605-1.07,3.003-1.536,4.248c-0.456,1.249-0.917,2.298-1.313,3.146
						c-0.373,0.811-0.672,1.461-0.9,1.957c-0.211,0.445-0.33,0.674-0.347,0.667c-0.017-0.008,0.069-0.253,0.248-0.711
						c0.204-0.505,0.471-1.168,0.805-1.995c0.365-0.859,0.796-1.916,1.224-3.172c0.438-1.251,0.999-2.653,1.455-4.259
						c0.246-0.798,0.503-1.633,0.77-2.501c0.264-0.871,0.47-1.796,0.721-2.743c0.528-1.889,0.914-3.949,1.361-6.107
						c0.777-4.338,1.376-9.154,1.581-14.239c0.159-5.085-0.094-9.931-0.558-14.312c-0.292-2.184-0.529-4.266-0.92-6.188
						c-0.183-0.963-0.322-1.901-0.523-2.788c-0.205-0.885-0.401-1.736-0.589-2.55c-0.34-1.634-0.8-3.073-1.147-4.352
						c-0.337-1.283-0.691-2.368-0.994-3.251c-0.274-0.848-0.493-1.529-0.661-2.047C420.813,347.597,420.745,347.346,420.762,347.34z
						"/>
				</g>
			</g>
			<g>
				<g>
					<path style="fill:#263238;" d="M458.605,333.048c0.009,0.002,0.002,0.084-0.02,0.243c-0.03,0.191-0.067,0.423-0.112,0.706
						c-0.111,0.618-0.251,1.535-0.498,2.702c-0.488,2.336-1.3,5.697-2.565,9.775c-1.258,4.079-2.984,8.862-5.031,14.115
						c-2.038,5.257-4.407,10.983-6.65,17.08c-2.278,6.086-4.032,12.027-5.681,17.417c-1.634,5.395-3.184,10.237-4.682,14.235
						c-1.483,4.003-2.911,7.156-3.989,9.285c-0.517,1.076-0.983,1.878-1.283,2.43c-0.142,0.249-0.258,0.453-0.353,0.621
						c-0.082,0.138-0.128,0.207-0.137,0.203c-0.008-0.005,0.022-0.082,0.088-0.229c0.083-0.174,0.183-0.386,0.306-0.645
						c0.268-0.567,0.703-1.383,1.19-2.47c1.017-2.152,2.387-5.316,3.82-9.325c1.448-4.004,2.957-8.845,4.564-14.247
						c1.622-5.395,3.367-11.356,5.65-17.46c2.248-6.111,4.632-11.833,6.694-17.075c2.07-5.238,3.829-9.996,5.13-14.049
						c1.307-4.051,2.174-7.388,2.724-9.705c0.278-1.158,0.451-2.067,0.596-2.677c0.066-0.279,0.12-0.507,0.164-0.695
						C458.571,333.125,458.596,333.046,458.605,333.048z"/>
				</g>
			</g>
			<g>
				<g>
					<path style="fill:#455A64;" d="M380.697,321.055c-1.592-1.582-4.24,0.073-3.581,2.218c0.668,2.175,1.68,4.989,3.175,8.164
						c3.473,7.381,13.676,33.865,18.452,48.41c4.776,14.545,11.506,41.68,11.506,41.68l10.199-1.654c0,0-9.331-44.585-18.448-60.65
						C394.674,346.316,387.348,327.663,380.697,321.055z"/>
				</g>
				<g>
					<g>
						<path style="fill:#263238;" d="M401.535,388.944c0.035-0.012,0.22,0.423,0.526,1.222c0.302,0.8,0.713,1.968,1.176,3.424
							c0.939,2.909,2.089,6.973,3.247,11.487c1.155,4.517,2.117,8.625,2.788,11.603c0.306,1.409,0.563,2.593,0.767,3.534
							c0.17,0.837,0.247,1.304,0.211,1.313c-0.036,0.009-0.182-0.441-0.415-1.264c-0.249-0.93-0.562-2.1-0.934-3.494
							c-0.78-3.068-1.806-7.1-2.94-11.559c-1.157-4.509-2.246-8.58-3.089-11.51c-0.403-1.383-0.741-2.545-1.01-3.468
							C401.618,389.415,401.499,388.956,401.535,388.944z"/>
					</g>
				</g>
				<g>
					<g>
						<path style="fill:#263238;" d="M415.372,420.7c-0.009,0.001-0.029-0.091-0.058-0.272c-0.031-0.212-0.069-0.476-0.116-0.803
							c-0.107-0.705-0.202-1.752-0.418-3.088c-0.374-2.679-1.043-6.54-2.138-11.25c-1.089-4.711-2.677-10.253-4.774-16.293
							c-2.092-6.042-4.716-12.571-7.689-19.328c-6-13.497-11.994-25.469-15.932-34.322c-1.991-4.416-3.532-8.021-4.547-10.533
							c-0.518-1.251-0.888-2.236-1.147-2.901c-0.115-0.31-0.208-0.56-0.283-0.76c-0.061-0.172-0.088-0.262-0.079-0.266
							c0.009-0.003,0.053,0.08,0.13,0.245c0.088,0.195,0.197,0.439,0.333,0.74c0.3,0.692,0.714,1.648,1.24,2.86
							c1.074,2.485,2.667,6.063,4.701,10.456c4.024,8.805,10.07,20.745,16.079,34.263c2.978,6.767,5.594,13.316,7.665,19.383
							c2.077,6.065,3.632,11.635,4.676,16.37c1.051,4.734,1.664,8.615,1.974,11.307c0.184,1.343,0.246,2.395,0.318,3.105
							c0.025,0.33,0.046,0.596,0.062,0.809C415.381,420.605,415.382,420.699,415.372,420.7z"/>
					</g>
				</g>
				<g>
					<g>
						<path style="fill:#263238;" d="M420.448,419.874c-0.037,0.005-0.158-0.606-0.344-1.714c-0.203-1.198-0.47-2.778-0.794-4.689
							c-0.703-3.951-1.776-9.394-3.319-15.317c-1.527-5.93-3.248-11.204-4.572-14.993c-0.65-1.826-1.188-3.335-1.595-4.479
							c-0.382-1.056-0.577-1.647-0.542-1.661c0.035-0.014,0.296,0.551,0.738,1.585c0.439,1.035,1.054,2.542,1.758,4.426
							c1.418,3.763,3.203,9.037,4.735,14.987c1.548,5.943,2.565,11.416,3.173,15.391c0.29,1.99,0.513,3.602,0.626,4.722
							C420.434,419.249,420.485,419.869,420.448,419.874z"/>
					</g>
				</g>
			</g>
		</g>
		<g>
			<g>
				<rect x="401.572" y="418.408" style="fill:#FF725E;" width="39.808" height="48.502"/>
			</g>
			<g style="opacity:0.3;">
				<rect x="401.572" y="418.408" width="39.808" height="48.502"/>
			</g>
			<g>
				<rect x="393.363" y="418.408" style="fill:#FF725E;" width="35.318" height="48.502"/>
			</g>
		</g>
	</g>
</g>
<g id="Character">
	<g>
		<g>
			<g>
				<g>
					<g>
						<g>
							<g>
								<g>
									<g>
										<g>
											<g>
												<g>
													<g>
														<g>
															<g>
																<g>
																	<g>
																		<g>
																			<g>
																				<g>
																					<g>
																						<path style="fill:#FFBE9D;" d="M105.183,161.261l-1.132,91.116c-0.193,15.495,2.691,38.296,27.203,37.483l0,0
																							c21.214-2.309,26.842-22.392,27.007-36.852c0.078-6.859,0.158-12.579,0.212-13.283
																							c0,0,23.222-1.894,25.183-24.831c0.947-11.084,1.039-34.074,0.881-54.872
																							c-0.169-22.338-17.491-40.789-39.769-42.416l-2.215-0.162C118.564,117.095,104.868,137.273,105.183,161.261z"
																							/>
																					</g>
																				</g>
																			</g>
																		</g>
																	</g>
																</g>
															</g>
														</g>
													</g>
												</g>
											</g>
										</g>
									</g>
								</g>
							</g>
							<g>
								<g>
									<g>
										<g>
											<g>
												<g>
													<g>
														<g>
															<g>
																<g>
																	<g>
																		<g>
																			<g>
																				<g>
																					<g>
																						<path style="fill:#EB996E;" d="M158.472,239.726c0,0-14.533-0.208-29.246-11.02
																							c0,0,6.067,17.301,29.126,16.906L158.472,239.726z"/>
																					</g>
																				</g>
																			</g>
																		</g>
																	</g>
																</g>
															</g>
														</g>
													</g>
												</g>
											</g>
										</g>
									</g>
								</g>
							</g>
						</g>
					</g>
				</g>
				<g>
					<g>
						<g>
							<g>
								<g>
									<g>
										<g>
											<g>
												<g>
													<g>
														<g>
															<g>
																<g>
																	<g>
																		<g>
																			<g>
																				<g>
																					<g>
																						<g>
																							<g>
																								<g>
																									<g>
																										<path style="fill:#263238;" d="M145.322,169.422c-0.456,0.464-3.104-1.668-6.948-1.771
																											c-3.837-0.16-6.712,1.782-7.116,1.288c-0.199-0.22,0.276-1.068,1.528-1.948
																											c1.234-0.877,3.32-1.703,5.713-1.621c2.393,0.085,4.381,1.047,5.513,2.006
																											C145.169,168.34,145.545,169.215,145.322,169.422z"/>
																									</g>
																								</g>
																							</g>
																						</g>
																					</g>
																				</g>
																			</g>
																		</g>
																	</g>
																</g>
															</g>
														</g>
													</g>
												</g>
											</g>
										</g>
									</g>
									<g>
										<g>
											<g>
												<g>
													<g>
														<g>
															<g>
																<g>
																	<g>
																		<g>
																			<g>
																				<g>
																					<g>
																						<g>
																							<g>
																								<g>
																									<path style="fill:#263238;" d="M145.206,177.371c-0.062,1.642-1.503,2.943-3.219,2.911
																										c-1.712-0.033-3.054-1.388-2.992-3.03c0.061-1.641,1.503-2.945,3.216-2.913
																										C143.927,174.372,145.268,175.729,145.206,177.371z"/>
																								</g>
																							</g>
																						</g>
																					</g>
																				</g>
																			</g>
																		</g>
																	</g>
																</g>
															</g>
														</g>
													</g>
												</g>
											</g>
										</g>
									</g>
									<g>
										<g>
											<g>
												<g>
													<g>
														<g>
															<g>
																<g>
																	<g>
																		<g>
																			<g>
																				<g>
																					<g>
																						<g>
																							<g>
																								<g>
																									<path style="fill:#263238;" d="M154.948,196.154c-0.002-0.202,2.219-0.421,5.805-0.615
																										c0.908-0.027,1.773-0.144,1.97-0.747c0.26-0.635-0.046-1.634-0.406-2.714
																										c-0.688-2.242-1.407-4.592-2.163-7.055c-2.987-10.037-5.078-18.263-4.673-18.38
																										c0.406-0.117,3.155,7.924,6.141,17.961c0.715,2.473,1.399,4.832,2.049,7.087
																										c0.266,1.049,0.767,2.253,0.209,3.57c-0.292,0.655-0.988,1.095-1.577,1.208
																										c-0.591,0.134-1.098,0.107-1.546,0.101C157.166,196.501,154.947,196.356,154.948,196.154z"/>
																								</g>
																							</g>
																						</g>
																					</g>
																				</g>
																			</g>
																		</g>
																	</g>
																</g>
															</g>
														</g>
													</g>
												</g>
											</g>
										</g>
									</g>
								</g>
							</g>
						</g>
						<g>
							<g>
								<g>
									<g>
										<g>
											<g>
												<g>
													<g>
														<g>
															<g>
																<g>
																	<g>
																		<g>
																			<g>
																				<g>
																					<path style="fill:#263238;" d="M143.687,154.973c-0.371,0.853-3.448,0.211-7.132,0.4
																						c-3.688,0.111-6.712,1.002-7.139,0.182c-0.189-0.392,0.385-1.177,1.637-1.937
																						c1.242-0.759,3.183-1.425,5.393-1.518c2.209-0.087,4.19,0.419,5.479,1.075
																						C143.224,153.832,143.849,154.568,143.687,154.973z"/>
																				</g>
																			</g>
																		</g>
																	</g>
																</g>
															</g>
														</g>
													</g>
												</g>
											</g>
										</g>
									</g>
								</g>
							</g>
						</g>
						<g>
							<g>
								<g>
									<g>
										<g>
											<g>
												<g>
													<g>
														<g>
															<g>
																<g>
																	<g>
																		<g>
																			<g>
																				<g>
																					<path style="fill:#263238;" d="M180.184,162.095c-0.403,0.695-3.402-0.076-7.036-0.189
																						c-3.634-0.178-6.65,0.353-7.034-0.373c-0.168-0.346,0.431-0.969,1.698-1.521
																						c1.255-0.552,3.196-0.973,5.375-0.888c2.178,0.089,4.105,0.665,5.344,1.316
																						C179.78,161.092,180.362,161.762,180.184,162.095z"/>
																				</g>
																			</g>
																		</g>
																	</g>
																</g>
															</g>
														</g>
													</g>
												</g>
											</g>
										</g>
									</g>
								</g>
							</g>
						</g>
					</g>
				</g>
				<g>
					<g>
						<g>
							<g>
								<g>
									<g>
										<g>
											<g>
												<g>
													<g>
														<g>
															<g>
																<g>
																	<path style="fill:#FFBE9D;" d="M105.816,178.397c-0.379-0.198-15.434-5.817-16.078,9.914
																		c-0.645,15.732,15.282,13.134,15.328,12.684C105.112,200.545,105.816,178.397,105.816,178.397z"/>
																</g>
															</g>
														</g>
													</g>
												</g>
											</g>
										</g>
									</g>
								</g>
							</g>
						</g>
					</g>
				</g>
				<g>
					<g>
						<g>
							<g>
								<g>
									<g>
										<g>
											<g>
												<g>
													<g>
														<g>
															<g>
																<g>
																	<g>
																		<path style="fill:#EB996E;" d="M100.505,194.838c-0.067-0.053-0.282,0.181-0.754,0.374
																			c-0.46,0.188-1.243,0.299-2.051-0.042c-1.637-0.678-2.928-3.374-2.888-6.213c0.019-1.433,0.375-2.785,0.928-3.892
																			c0.528-1.131,1.305-1.905,2.148-2.019c0.84-0.158,1.412,0.367,1.586,0.817c0.193,0.449,0.08,0.758,0.162,0.789
																			c0.043,0.041,0.349-0.25,0.248-0.905c-0.052-0.315-0.221-0.694-0.578-1.011c-0.365-0.322-0.914-0.502-1.499-0.462
																			c-1.217,0.034-2.354,1.106-2.963,2.322c-0.675,1.219-1.109,2.736-1.13,4.346c-0.029,3.174,1.473,6.207,3.72,6.958
																			c1.095,0.334,2.032,0.038,2.523-0.314C100.461,195.218,100.558,194.869,100.505,194.838z"/>
																	</g>
																</g>
															</g>
														</g>
													</g>
												</g>
											</g>
										</g>
									</g>
								</g>
							</g>
						</g>
					</g>
				</g>
				<g>
					<path style="fill:#263238;" d="M151.236,207.047c0.172-0.397-2.911-1.32-5.077-4.212c-1.083-1.423-1.708-2.975-2.177-4.108
						c-0.459-1.142-0.807-1.859-0.977-1.806c-0.16,0.05-0.121,0.823,0.132,2.066c0.263,1.229,0.799,2.985,2.025,4.602
						c1.208,1.633,2.828,2.608,4.018,3.076C150.382,207.151,151.194,207.181,151.236,207.047z"/>
				</g>
				<g>
					<g>
						<g>
							<g>
								<g>
									<g>
										<g>
											<g>
												<g>
													<path style="fill:#263238;" d="M180.355,170.87c-0.456,0.464-3.104-1.668-6.948-1.771
														c-3.837-0.16-6.712,1.782-7.116,1.288c-0.199-0.22,0.275-1.068,1.528-1.948c1.234-0.877,3.32-1.702,5.713-1.621
														c2.393,0.085,4.381,1.047,5.513,2.006C180.203,169.787,180.579,170.663,180.355,170.87z"/>
												</g>
											</g>
										</g>
									</g>
								</g>
							</g>
						</g>
					</g>
				</g>
				<g>
					<g>
						<g>
							<g>
								<g>
									<g>
										<g>
											<g>
												<path style="fill:#263238;" d="M179.725,178.487c-0.062,1.642-1.503,2.943-3.219,2.91
													c-1.712-0.033-3.054-1.388-2.992-3.03c0.061-1.641,1.503-2.945,3.216-2.913
													C178.446,175.488,179.787,176.845,179.725,178.487z"/>
											</g>
										</g>
									</g>
								</g>
							</g>
						</g>
					</g>
				</g>
			</g>
			<g>
				<path style="fill:#263238;" d="M200.538,129.563c-2.953-5.163-10.097-7.424-15.483-4.899c1.415-7.223-2.479-15.157-9.059-18.455
					c-6.58-3.298-15.267-1.671-20.208,3.784c-0.31-1.956-1.689-3.63-3.384-4.655c-1.694-1.025-3.679-1.471-5.647-1.685
					c-6.126-0.666-12.466,0.831-17.647,4.168c-2.715,1.748-5.09,4.004-7.024,6.59c-9.097-1.07-18.745,2.26-24.91,9.089
					c-7.391,8.186-8.783,27.158-0.689,43.546l1.906,10.275c2.538-0.007,4.861,0.174,6.425,1.581c2.126,1.912,3.077,5.509,6.61,4.143
					c1.798-0.695,3.439-4.468,4.041-6.299c3.994-12.157,5.319-25.18,3.877-37.893c2.514-2.68,5.549-4.871,8.885-6.413l-0.272,0.245
					c6.41-2.227,13.661-4.417,19.744-1.407c4.718,2.335,7.491,7.23,11.018,11.137c6.685,7.404,15.702,11.427,25.668,11.856
					c0.339,6.459-0.203,15.588,0.135,22.046l5.433-10.346l0.005,0.051c0.445-0.757,0.813-1.521,1.169-2.286l0.122-0.232l0-0.029
					c0.001-0.003,0.002-0.005,0.004-0.008c0.994-0.807,1.747-2.286,3.426-4.209c3.245-3.717,4.144-9.321,2.226-13.866
					C201.816,142.03,203.491,134.727,200.538,129.563z"/>
				<path style="fill:#263238;" d="M193.132,159.855c-0.007-0.006-0.014-0.012-0.021-0.018c0,0,0,0,0,0L193.132,159.855z"/>
			</g>
			<g>
				<path style="fill:#455A64;" d="M191.134,129.8c0.016-0.004,0.055,0.111,0.115,0.338c0.064,0.225,0.123,0.569,0.144,1.018
					c0.046,0.887-0.1,2.25-0.916,3.687c-0.408,0.711-0.984,1.429-1.757,2.035c-0.776,0.593-1.764,1.06-2.868,1.223
					c-2.176,0.357-4.872-0.38-6.558-2.469l0.39-0.335c0.745,0.798,1.153,1.945,1.108,3.085c-0.041,1.531-0.707,2.975-1.758,3.964
					c-1.071,0.983-2.434,1.454-3.72,1.583c-2.615,0.255-4.884-0.723-6.467-1.779c-1.609-1.072-2.709-2.179-3.457-2.938
					c-0.743-0.768-1.125-1.218-1.101-1.242c0.027-0.027,0.459,0.376,1.242,1.096c0.787,0.711,1.919,1.768,3.514,2.773
					c1.572,0.994,3.758,1.878,6.218,1.612c1.204-0.132,2.467-0.589,3.423-1.478c0.942-0.892,1.552-2.223,1.587-3.603
					c0.039-1.03-0.323-2.025-0.963-2.721l0.39-0.335c1.533,1.921,4.05,2.646,6.085,2.337c2.093-0.28,3.609-1.653,4.399-2.981
					c0.817-1.347,1.013-2.648,1.024-3.511C191.215,130.285,191.087,129.81,191.134,129.8z"/>
			</g>
			<g>
				<path style="fill:#455A64;" d="M171.449,112.56c0.009-0.015,0.125,0.036,0.338,0.15c0.21,0.12,0.516,0.306,0.877,0.592
					c0.713,0.565,1.723,1.525,2.373,3.081c0.657,1.517,0.741,3.774-0.54,5.668c-0.624,0.928-1.642,1.718-2.867,1.968
					c-1.204,0.253-2.573,0.06-3.666-0.711c-0.344-0.247-0.636-0.554-0.872-0.868l0.45-0.254c0.502,1.176,0.367,2.487-0.118,3.535
					c-0.476,1.064-1.339,1.888-2.289,2.344c-1.933,0.929-3.967,0.626-5.359-0.011c-1.422-0.648-2.327-1.546-2.887-2.178
					c-0.559-0.644-0.788-1.056-0.765-1.071c0.033-0.025,0.315,0.347,0.908,0.938c0.592,0.58,1.513,1.409,2.886,1.984
					c1.339,0.566,3.256,0.794,5.008-0.082c0.861-0.432,1.615-1.169,2.04-2.132c0.43-0.948,0.534-2.11,0.099-3.121l-0.831-1.931
					l1.281,1.676c0.205,0.268,0.455,0.533,0.753,0.748c0.948,0.671,2.179,0.856,3.257,0.634c1.091-0.217,1.993-0.901,2.578-1.742
					c1.191-1.716,1.171-3.81,0.592-5.259c-0.57-1.489-1.502-2.462-2.16-3.06C171.864,112.854,171.424,112.6,171.449,112.56z"/>
			</g>
		</g>
		<g>
			<g>
				<g>
					<path style="fill:#FF725E;" d="M304.949,227.255l-36.297,27.717c-2.156,1.647-2.475,4.772-0.695,6.82l0,0
						c1.637,1.884,4.462,2.16,6.433,0.629l35.998-27.974l4.871-9.604L304.949,227.255z"/>
					<path style="opacity:0.5;fill:#FFFFFF;" d="M310.595,225.934l2.574,2.996l-2.781,5.516c0,0-2.665,0.135-2.421-2.51
						c0,0-2.704,0.28-2.196-2.519c0,0-1.887-0.169-0.823-2.162L310.595,225.934z"/>
					<polygon style="fill:#263238;" points="268.652,254.973 274.609,262.25 276.609,260.697 270.896,253.259 					"/>
				</g>
				<g>
					<path style="fill:#FFBE9D;" d="M265.975,324.457l-1.305-0.234l26.742-46.746l-4.227-13.476c0,0-4.9-19.193-0.817-24.093
						c0,0,8.932-10.513,11.83-10.368c2.898,0.145,5.216,0.724,5.795,2.898c0,0,4.926-0.579,6.23,1.014
						c1.304,1.594,2.318,3.477,2.318,3.477s5.361-0.435,6.809,4.202c0,0,5.071,2.608,5.505,6.375
						c0.435,3.767-1.014,21.297-2.608,25.789c-1.594,4.491-7.534,13.908-9.272,27.817c-1.738,13.908-7.866,22.936-13.312,43.264
						l-14.794,5.85L265.975,324.457z"/>
				</g>
				<g>
					<g>
						<path style="fill:#EB996E;" d="M303.739,232.142c0.109,0.152-1.732,1.368-3.121,3.614c-1.422,2.225-1.72,4.412-1.905,4.38
							c-0.151,0.018-0.117-2.334,1.39-4.703C301.585,233.048,303.689,231.997,303.739,232.142z"/>
					</g>
				</g>
				<g>
					<g>
						<path style="fill:#EB996E;" d="M312.252,236.922c0.1,0.156-1.657,1.216-3.055,3.235c-1.428,1.999-1.83,4.01-2.011,3.969
							c-0.153,0.007-0.005-2.182,1.513-4.319C310.197,237.656,312.207,236.775,312.252,236.922z"/>
					</g>
				</g>
				<g>
					<g>
						<path style="fill:#EB996E;" d="M319.066,240.984c0.113,0.14-1.219,1.304-2.44,3.071c-1.238,1.755-1.872,3.407-2.042,3.349
							c-0.152-0.034,0.245-1.85,1.544-3.697C317.413,241.852,318.981,240.853,319.066,240.984z"/>
					</g>
				</g>
				<g>
					<g>
						<path style="fill:#EB996E;" d="M293.954,242.521c-0.095,0.148-1.3-0.644-2.968-0.508c-1.672,0.09-2.759,1.038-2.873,0.904
							c-0.053-0.051,0.142-0.378,0.628-0.738c0.48-0.36,1.275-0.708,2.203-0.772c0.928-0.061,1.763,0.176,2.287,0.468
							C293.762,242.166,293.999,242.463,293.954,242.521z"/>
					</g>
				</g>
				<g>
					<g>
						<path style="fill:#EB996E;" d="M304.617,249.189c-0.168,0.061-0.67-1.5-2.207-2.643c-1.509-1.18-3.147-1.25-3.133-1.429
							c-0.002-0.074,0.412-0.17,1.085-0.084c0.669,0.083,1.585,0.398,2.416,1.029c0.828,0.634,1.375,1.434,1.632,2.057
							C304.672,248.747,304.688,249.171,304.617,249.189z"/>
					</g>
				</g>
				<g>
					<g>
						<path style="fill:#EB996E;" d="M315.207,251.451c-0.13,0.126-1.293-1.193-3.288-1.709c-1.983-0.562-3.653-0.01-3.701-0.185
							c-0.027-0.068,0.354-0.312,1.058-0.48c0.699-0.169,1.728-0.211,2.802,0.077c1.073,0.293,1.94,0.848,2.458,1.347
							C315.059,251.002,315.265,251.405,315.207,251.451z"/>
					</g>
				</g>
			</g>
			<g>
				<g>
					<path style="fill:#FF725E;" d="M45.408,302.438c0,0-16.388,93.084-15.597,101.787c0.791,8.704,5.15,22.55,15.037,24.924
						c9.887,2.374,18.986,0,18.986,0L51.966,314.816L45.408,302.438z"/>
				</g>
				<g>
					<path style="fill:#FF725E;" d="M93.396,254.425c0,0-19.614,13.942-23.949,18.043c-18.133,17.15-21.928,24.168-24.038,29.97
						c-2.11,5.802,12.588,140.572,12.588,140.572l2.978,23.546l0,0l137.667,0.355l0,0V346.608l-20.683-84.664l-12.727-3.622
						l-2.569-10.092c0,0-15.813-11.676-41.895-12.012c-8.024-0.104-19.373,3.049-25.714,7.968l0,0L93.396,254.425z"/>
				</g>
				<g>
					<path style="fill:#FF725E;" d="M162.561,262.292c0,0,14.148-0.637,15.398-0.348c4.36,1.006,16.336,11.984,29.975,25.512
						c13.012,12.906,38.615,39.758,38.615,39.758s4.602-4.646,9.85,1.555l20.211-29.401c0,0,30.337,3.726,35.107,26.624
						c0,0-9.298,17.753-16.914,30.446c0,0-28.195,46.788-50.465,38.316c-20.342-7.739-45.85-28.435-49.441-32.857l-29.95-21.371
						c0,0-20.513-39.117-11.449-58.675C162.561,262.292,162.561,262.292,162.561,262.292z"/>
				</g>
				<g>
					<g>
						<path style="fill:#263238;" d="M165.231,258.322c-0.006,0.02-0.256-0.032-0.726-0.149c-0.529-0.139-1.206-0.318-2.043-0.539
							c-1.776-0.452-4.357-1.071-7.578-1.679c-6.432-1.266-15.427-2.462-25.408-3.133c-9.987-0.608-19.067-0.552-25.59,0.076
							c-3.264,0.28-5.887,0.687-7.688,1.014c-0.848,0.168-1.534,0.303-2.071,0.41c-0.476,0.087-0.728,0.123-0.734,0.103
							c-0.005-0.02,0.237-0.096,0.704-0.222c0.532-0.135,1.212-0.308,2.053-0.522c1.794-0.4,4.421-0.874,7.693-1.21
							c6.542-0.74,15.655-0.865,25.67-0.255c10.009,0.673,19.023,1.939,25.454,3.318c3.22,0.664,5.795,1.35,7.557,1.873
							c0.825,0.266,1.493,0.481,2.015,0.65C165.001,258.211,165.238,258.302,165.231,258.322z"/>
					</g>
				</g>
				<g>
					<g>
						<path style="fill:#263238;" d="M111.609,251.318c-0.166,0.023-0.624-2.281-1.022-5.146c-0.398-2.866-0.586-5.207-0.42-5.23
							c0.166-0.023,0.624,2.281,1.022,5.146C111.588,248.954,111.776,251.295,111.609,251.318z"/>
					</g>
				</g>
				<g>
					<g>
						<path style="fill:#263238;" d="M116.75,250.877c-0.145,0.055-1.016-2.201-1.212-5.149c-0.213-2.948,0.338-5.302,0.489-5.268
							c0.179,0.026-0.091,2.36,0.117,5.226C116.334,248.552,116.924,250.827,116.75,250.877z"/>
					</g>
				</g>
				<g style="opacity:0.3;">
					<g>
						<path d="M93.849,254.307c21.545,3.813,43.384,0.035,66.184,2.733C138.017,252.483,115.091,250.323,93.849,254.307"/>
					</g>
				</g>
				<g style="opacity:0.3;">
					<g>
						<path d="M56.042,429.326c-12.119-28.382-10.685-60.463-9.041-91.28L56.042,429.326z"/>
					</g>
				</g>
				<g>
					<g>
						<path style="fill:#263238;" d="M45.408,322.731c0.01-0.001,0.032,0.12,0.064,0.358c0.033,0.271,0.075,0.619,0.127,1.055
							c0.103,0.97,0.247,2.331,0.431,4.063c0.354,3.572,0.858,8.67,1.48,14.951c1.231,12.626,2.913,30.069,4.917,49.318
							c2.011,19.255,4.017,36.664,5.623,49.246c0.79,6.292,1.471,11.379,1.948,14.894c0.228,1.726,0.407,3.082,0.535,4.049
							c0.051,0.437,0.092,0.785,0.124,1.055c0.025,0.238,0.032,0.361,0.022,0.363c-0.01,0.002-0.038-0.118-0.083-0.353
							c-0.047-0.269-0.108-0.614-0.184-1.047c-0.155-0.963-0.372-2.314-0.648-4.033c-0.55-3.505-1.295-8.585-2.14-14.872
							c-1.715-12.572-3.79-29.98-5.801-49.239c-2.005-19.253-3.619-36.705-4.741-49.341c-0.541-6.289-0.98-11.392-1.288-14.969
							c-0.135-1.736-0.241-3.1-0.317-4.073c-0.028-0.439-0.05-0.788-0.067-1.061C45.399,322.855,45.398,322.732,45.408,322.731z"/>
					</g>
				</g>
				<g>
					<g>
						<path style="fill:#263238;" d="M138.613,307.502c0,0.021-0.306,0.037-0.888,0.047c-0.64,0.004-1.485,0.01-2.542,0.017
							c-2.207-0.009-5.401,0.024-9.344,0.116c-7.887,0.178-18.779,0.756-30.732,2.171c-11.955,1.43-22.68,3.424-30.388,5.102
							c-3.855,0.836-6.967,1.554-9.11,2.08c-1.029,0.241-1.852,0.434-2.475,0.58c-0.568,0.126-0.868,0.182-0.874,0.162
							c-0.005-0.02,0.285-0.116,0.842-0.28c0.616-0.174,1.43-0.403,2.448-0.69c2.127-0.597,5.226-1.38,9.075-2.27
							c7.694-1.788,18.43-3.854,30.41-5.286c11.977-1.418,22.897-1.93,30.796-1.997c3.95-0.037,7.147-0.004,9.355,0.077
							c1.057,0.04,1.902,0.073,2.542,0.097C138.309,307.456,138.613,307.481,138.613,307.502z"/>
					</g>
				</g>
				<g>
					<g>
						<path style="fill:#263238;" d="M85.747,337.642c-0.168-0.006,0.148-12.896,0.707-28.787
							c0.558-15.897,1.146-28.774,1.314-28.768c0.168,0.006-0.149,12.893-0.707,28.79C86.503,324.768,85.915,337.648,85.747,337.642
							z"/>
					</g>
				</g>
				<g>
					<g>
						<path style="fill:#263238;" d="M156.104,336.049c-0.018,0.01-0.196-0.269-0.516-0.808c-0.343-0.591-0.803-1.38-1.38-2.372
							c-1.23-2.114-2.958-5.081-5.08-8.726c-2.088-3.71-4.585-8.184-6.371-13.576c-0.869-2.696-1.555-5.608-1.9-8.679
							c-0.31-3.074-0.299-6.279-0.027-9.538c0.6-6.489,1.999-12.671,4.545-17.769c1.253-2.55,2.786-4.805,4.481-6.686
							c1.699-1.878,3.562-3.356,5.383-4.494c3.665-2.276,7.167-3.083,9.55-3.199c2.401-0.13,3.702,0.206,3.702,0.206
							c-0.006,0.08-1.321-0.171-3.684,0.03c-2.346,0.186-5.768,1.045-9.339,3.327c-1.774,1.141-3.588,2.612-5.238,4.468
							c-1.644,1.857-3.134,4.081-4.353,6.597c-2.477,5.027-3.846,11.135-4.442,17.579c-0.268,3.223-0.283,6.385,0.014,9.417
							c0.332,3.029,0.996,5.901,1.84,8.57c1.734,5.336,4.176,9.809,6.213,13.539c2.051,3.684,3.722,6.683,4.911,8.819
							c0.536,1.016,0.962,1.825,1.281,2.429C155.981,335.741,156.123,336.039,156.104,336.049z"/>
					</g>
				</g>
				<g style="opacity:0.3;">
					<g>
						<path d="M54.488,317.707c8.696-0.448,17.355-1.59,25.87-3.412c-1.053,3.757-1.543,7.672-1.448,11.573
							c2.695-3.025,4.68-6.678,5.751-10.585c0.598,4.257,3.017,8.227,6.526,10.709c0.86-3.86,1.058-7.867,0.582-11.793
							c12.872-1.551,25.675-3.67,38.36-6.349c-25.668-0.629-51.426,2.578-76.156,9.481"/>
					</g>
				</g>
			</g>
			<g>
				<path style="fill:#263238;" d="M219.99,381.874c-0.01,0.015-0.214-0.108-0.594-0.354c-0.42-0.28-0.966-0.645-1.645-1.098
					c-1.423-0.961-3.466-2.374-5.979-4.138c-5.025-3.527-11.913-8.478-19.424-14.077c-7.512-5.603-14.222-10.793-19.036-14.604
					c-2.407-1.905-4.344-3.46-5.671-4.55c-0.628-0.521-1.133-0.941-1.521-1.263c-0.344-0.293-0.52-0.454-0.508-0.468
					c0.011-0.014,0.208,0.119,0.573,0.386c0.404,0.303,0.929,0.697,1.581,1.186c1.412,1.081,3.371,2.581,5.772,4.418
					c4.87,3.735,11.613,8.877,19.121,14.477c7.507,5.597,14.357,10.593,19.327,14.195c2.446,1.777,4.443,3.227,5.881,4.272
					c0.656,0.486,1.183,0.877,1.588,1.177C219.817,381.708,220.001,381.859,219.99,381.874z"/>
			</g>
			<g>
				<path style="fill:#263238;" d="M253.592,351.186c-0.091-0.004-0.033-1.512-0.208-3.93c-0.171-2.416-0.66-5.743-1.751-9.274
					c-1.102-3.529-2.586-6.547-3.815-8.635c-1.226-2.092-2.129-3.301-2.056-3.355c0.029-0.022,0.277,0.262,0.704,0.796
					c0.433,0.529,1.008,1.337,1.666,2.368c1.321,2.058,2.881,5.094,3.998,8.671c1.107,3.579,1.543,6.964,1.621,9.408
					c0.042,1.223,0.027,2.214-0.03,2.895C253.672,350.813,253.628,351.188,253.592,351.186z"/>
			</g>
			<g>
				<path style="fill:#263238;" d="M259.786,348.924c-0.084-0.016,0.107-1.184,0.252-3.08c0.147-1.895,0.193-4.527-0.134-7.406
					c-0.335-2.879-0.978-5.432-1.551-7.244c-0.572-1.814-1.023-2.908-0.945-2.942c0.033-0.015,0.179,0.244,0.415,0.726
					c0.242,0.48,0.545,1.196,0.878,2.097c0.669,1.8,1.38,4.38,1.72,7.302c0.333,2.922,0.227,5.596-0.016,7.501
					c-0.12,0.953-0.253,1.72-0.379,2.242C259.905,348.646,259.821,348.931,259.786,348.924z"/>
			</g>
			<g>
				<path style="fill:#263238;" d="M306.75,336.049c-0.029,0.007,0.014-0.193-0.232-0.375c-0.116-0.084-0.302-0.223-0.405-0.44
					c-0.118-0.209-0.193-0.467-0.337-0.708c-0.266-0.5-0.931-0.889-1.414-1.628c-0.497-0.714-0.865-1.631-1.206-2.64
					c-0.613-2.031-1.613-4.356-3.432-6.476c-0.889-1.066-1.95-2.078-3.092-3.081c-1.144-1.001-2.378-1.973-3.73-2.849
					c-1.358-0.916-2.615-1.832-3.991-2.477c-1.371-0.671-2.695-1.319-3.96-1.938c-1.266-0.597-2.439-1.215-3.589-1.708
					c-1.145-0.488-2.216-0.944-3.203-1.365c-0.488-0.224-0.956-0.376-1.394-0.636c-0.424-0.254-0.777-0.529-1.136-0.728
					c-0.368-0.196-0.714-0.38-1.038-0.551c-0.327-0.173-0.59-0.399-0.829-0.55c-0.493-0.307-0.928-0.477-1.204-0.626
					c-0.281-0.143-0.417-0.238-0.409-0.253c0.009-0.017,0.16,0.046,0.452,0.157c0.288,0.117,0.732,0.253,1.266,0.548
					c0.505,0.356,1.117,0.642,1.902,1.02c0.386,0.199,0.757,0.469,1.162,0.696c0.392,0.222,0.896,0.379,1.378,0.587
					c0.991,0.401,2.067,0.836,3.218,1.302c1.154,0.474,2.355,1.087,3.636,1.676c1.269,0.61,2.597,1.249,3.974,1.911
					c1.406,0.65,2.725,1.604,4.052,2.5c1.37,0.887,2.628,1.883,3.779,2.9c1.149,1.019,2.223,2.056,3.124,3.158
					c1.843,2.181,2.85,4.63,3.413,6.667c0.316,1.008,0.65,1.902,1.099,2.594c0.417,0.702,1.065,1.112,1.349,1.691
					c0.146,0.28,0.203,0.54,0.299,0.737c0.085,0.209,0.215,0.317,0.337,0.432C306.845,335.838,306.756,336.068,306.75,336.049z"/>
			</g>
			<g>
				<path style="fill:#263238;" d="M178.462,464.58c-0.144,0-0.26-25.302-0.26-56.506c0-31.215,0.117-56.511,0.26-56.511
					c0.144,0,0.26,25.297,0.26,56.511C178.723,439.278,178.606,464.58,178.462,464.58z"/>
			</g>
		</g>
	</g>
</g>
</svg>
