<svg version="1.1" xmlns="http://www.w3.org/2000/svg" xmlns:xlink="http://www.w3.org/1999/xlink" x="0px" y="0px" style="enable-background:new 0 0 500 500;" xml:space="preserve" viewBox="0 54.95 500 372.62">
<g id="Background_Complete">
	<g>
		<rect y="382.398" style="fill:#EBEBEB;" width="500" height="0.25"/>
		<rect x="288.404" y="396.342" style="fill:#EBEBEB;" width="33.122" height="0.25"/>
		<rect x="407.085" y="393.629" style="fill:#EBEBEB;" width="8.693" height="0.25"/>
		<rect x="327.667" y="389.208" style="fill:#EBEBEB;" width="68.919" height="0.25"/>
		<rect x="194.843" y="395.111" style="fill:#EBEBEB;" width="30.304" height="0.25"/>
		<rect x="166.717" y="395.111" style="fill:#EBEBEB;" width="19.222" height="0.25"/>
		<rect x="52.459" y="390.888" style="fill:#EBEBEB;" width="46.838" height="0.25"/>
		<path style="fill:#EBEBEB;" d="M237.014,337.8H43.915c-3.147,0-5.708-2.561-5.708-5.708V60.66c0-3.147,2.561-5.708,5.708-5.708    h193.099c3.146,0,5.707,2.561,5.707,5.708v271.432C242.721,335.239,240.16,337.8,237.014,337.8z M43.915,55.203    c-3.01,0-5.458,2.448-5.458,5.458v271.432c0,3.01,2.448,5.458,5.458,5.458h193.099c3.009,0,5.457-2.448,5.457-5.458V60.66    c0-3.009-2.448-5.458-5.457-5.458H43.915z"/>
		<path style="fill:#EBEBEB;" d="M453.31,337.8H260.212c-3.147,0-5.707-2.561-5.707-5.708V60.66c0-3.147,2.561-5.708,5.707-5.708    H453.31c3.148,0,5.708,2.561,5.708,5.708v271.432C459.019,335.239,456.458,337.8,453.31,337.8z M260.212,55.203    c-3.009,0-5.457,2.448-5.457,5.458v271.432c0,3.01,2.448,5.458,5.457,5.458H453.31c3.01,0,5.458-2.448,5.458-5.458V60.66    c0-3.009-2.448-5.458-5.458-5.458H260.212z"/>
	</g>
	<g>
		<g>
			<g>
				<path style="fill:#E6E6E6;" d="M438.676,169.109c0-2.266-1.854-4.12-4.12-4.12H306.218c-2.266,0-4.12,1.854-4.12,4.12v13.262      h136.578V169.109z"/>
				<path style="fill:#FFFFFF;" d="M408.48,173.681c0,1.72-1.395,3.115-3.115,3.115s-3.115-1.395-3.115-3.115      c0-1.721,1.395-3.115,3.115-3.115S408.48,171.96,408.48,173.681z"/>
				<path style="fill:#FFFFFF;" d="M419.519,173.681c0,1.72-1.395,3.115-3.115,3.115s-3.115-1.395-3.115-3.115      c0-1.721,1.395-3.115,3.115-3.115S419.519,171.96,419.519,173.681z"/>
				<circle style="fill:#FFFFFF;" cx="427.442" cy="173.681" r="3.115"/>
				<path style="fill:#F0F0F0;" d="M306.218,271.691h128.339c2.266,0,4.12-1.854,4.12-4.12v-85.199H302.098v85.199      C302.098,269.837,303.952,271.691,306.218,271.691z"/>
			</g>
			<g>
				<path style="fill:#F0F0F0;" d="M449.102,200.299c0-2.266-1.854-4.12-4.12-4.12H316.644c-2.266,0-4.12,1.854-4.12,4.12v13.262      h136.578V200.299z"/>
				<path style="fill:#E6E6E6;" d="M418.906,204.87c0,1.721-1.395,3.115-3.115,3.115c-1.721,0-3.115-1.395-3.115-3.115      c0-1.72,1.395-3.115,3.115-3.115C417.512,201.755,418.906,203.149,418.906,204.87z"/>
				<path style="fill:#E6E6E6;" d="M429.945,204.87c0,1.721-1.395,3.115-3.115,3.115c-1.721,0-3.115-1.395-3.115-3.115      c0-1.72,1.395-3.115,3.115-3.115C428.55,201.755,429.945,203.149,429.945,204.87z"/>
				<path style="fill:#E6E6E6;" d="M440.983,204.87c0,1.721-1.395,3.115-3.115,3.115c-1.721,0-3.115-1.395-3.115-3.115      c0-1.72,1.395-3.115,3.115-3.115C439.588,201.755,440.983,203.149,440.983,204.87z"/>
				<path style="fill:#FAFAFA;" d="M316.644,302.88h128.339c2.266,0,4.12-1.854,4.12-4.12v-85.199H312.524v85.199      C312.524,301.026,314.378,302.88,316.644,302.88z"/>
			</g>
		</g>
		<g>
			<g>
				<path style="fill:#E0E0E0;" d="M49.664,73.415c0-2.149,1.758-3.908,3.908-3.908H221.97c2.149,0,3.908,1.758,3.908,3.908v12.579      H49.664V73.415z"/>
				<path style="fill:#FFFFFF;" d="M81.259,80.961c-1.771,0-3.211-1.44-3.211-3.211s1.44-3.211,3.211-3.211s3.211,1.44,3.211,3.211      S83.029,80.961,81.259,80.961z M81.259,75.052c-1.488,0-2.699,1.21-2.699,2.698s1.211,2.698,2.699,2.698      c1.488,0,2.699-1.211,2.699-2.698S82.747,75.052,81.259,75.052z"/>
				<path style="fill:#FFFFFF;" d="M70.789,80.961c-1.771,0-3.21-1.44-3.21-3.211s1.439-3.211,3.21-3.211S74,75.98,74,77.75      S72.56,80.961,70.789,80.961z M70.789,75.052c-1.487,0-2.698,1.21-2.698,2.698s1.211,2.698,2.698,2.698      c1.488,0,2.699-1.211,2.699-2.698S72.277,75.052,70.789,75.052z"/>
				<path style="fill:#FFFFFF;" d="M60.319,80.961c-1.771,0-3.21-1.44-3.21-3.211s1.439-3.211,3.21-3.211s3.211,1.44,3.211,3.211      S62.09,80.961,60.319,80.961z M60.319,75.052c-1.487,0-2.698,1.21-2.698,2.698s1.211,2.698,2.698,2.698      c1.488,0,2.699-1.211,2.699-2.698S61.808,75.052,60.319,75.052z"/>
				<path style="fill:#EBEBEB;" d="M53.571,190.561H221.97c2.149,0,3.908-1.758,3.908-3.908V85.993H49.664v100.66      C49.664,188.803,51.422,190.561,53.571,190.561z"/>
			</g>
			<g>
				<path style="fill:#FAFAFA;" d="M91.914,99.814c0-2.149,1.758-3.908,3.908-3.908h168.399c2.149,0,3.908,1.758,3.908,3.908v12.579      H91.914V99.814z"/>
				<path style="fill:#E6E6E6;" d="M123.509,107.361c-1.771,0-3.21-1.44-3.21-3.211c0-1.771,1.439-3.211,3.21-3.211      s3.211,1.44,3.211,3.211C126.72,105.921,125.28,107.361,123.509,107.361z M123.509,101.452c-1.487,0-2.698,1.211-2.698,2.699      c0,1.488,1.211,2.698,2.698,2.698c1.488,0,2.699-1.21,2.699-2.698C126.208,102.662,124.997,101.452,123.509,101.452z"/>
				<path style="fill:#E6E6E6;" d="M113.04,107.361c-1.771,0-3.211-1.44-3.211-3.211c0-1.771,1.44-3.211,3.211-3.211      c1.771,0,3.21,1.44,3.21,3.211C116.25,105.921,114.811,107.361,113.04,107.361z M113.04,101.452      c-1.488,0-2.699,1.211-2.699,2.699c0,1.488,1.211,2.698,2.699,2.698c1.487,0,2.698-1.21,2.698-2.698      C115.739,102.662,114.528,101.452,113.04,101.452z"/>
				<path style="fill:#E6E6E6;" d="M102.571,107.361c-1.771,0-3.211-1.44-3.211-3.211c0-1.771,1.44-3.211,3.211-3.211      s3.21,1.44,3.21,3.211C105.781,105.921,104.341,107.361,102.571,107.361z M102.571,101.452c-1.488,0-2.699,1.211-2.699,2.699      c0,1.488,1.211,2.698,2.699,2.698c1.487,0,2.698-1.21,2.698-2.698C105.269,102.662,104.058,101.452,102.571,101.452z"/>
				<path style="fill:#F5F5F5;" d="M95.822,236.811h168.399c2.149,0,3.908-1.758,3.908-3.908v-120.51H91.914v120.51      C91.914,235.053,93.673,236.811,95.822,236.811z"/>
			</g>
		</g>
		<g>
			<path style="fill:#E6E6E6;" d="M349.108,121.292h-59.407c-0.714,0-1.298,0.584-1.298,1.298v9.759     c0,0.714,0.584,1.298,1.298,1.298h59.407c0.714,0,1.298-0.584,1.298-1.298v-9.759     C350.406,121.876,349.822,121.292,349.108,121.292z"/>
			<path style="fill:#F0F0F0;" d="M393.241,100.346l-103.545,0.651c-0.714,0.003-1.295,0.589-1.293,1.303l0.039,9.758     c0.003,0.714,0.589,1.295,1.303,1.292l103.545-0.651c0.714-0.003,1.295-0.589,1.292-1.303l-0.039-9.758     C394.541,100.925,393.955,100.343,393.241,100.346z"/>
			<path style="fill:#F0F0F0;" d="M370.548,80.051h-80.847c-0.714,0-1.298,0.584-1.298,1.298v9.758c0,0.714,0.584,1.298,1.298,1.298     h80.847c0.714,0,1.298-0.584,1.298-1.298v-9.758C371.846,80.635,371.262,80.051,370.548,80.051z"/>
		</g>
		<g>
			<path style="fill:#E6E6E6;" d="M82.027,280.113H61.428c-0.345,0-0.628,0.282-0.628,0.628v6.945c0,0.345,0.282,0.628,0.628,0.628     h20.599c0.345,0,0.628-0.282,0.628-0.628v-6.945C82.654,280.395,82.372,280.113,82.027,280.113z"/>
			<path style="fill:#F0F0F0;" d="M97.753,266.573l-36.498,0.432c-0.252,0.002-0.457,0.391-0.455,0.865l0.014,6.478     c0.001,0.474,0.208,0.86,0.459,0.858l36.498-0.432c0.252-0.002,0.457-0.391,0.456-0.865l-0.014-6.478     C98.211,266.957,98.004,266.571,97.753,266.573z"/>
			<path style="fill:#F0F0F0;" d="M89.584,253.466H61.428c-0.345,0-0.628,0.283-0.628,0.628v6.945c0,0.345,0.282,0.628,0.628,0.628     h28.156c0.345,0,0.628-0.283,0.628-0.628v-6.945C90.212,253.748,89.929,253.466,89.584,253.466z"/>
			<path style="fill:#F0F0F0;" d="M97.753,306.544l-36.498,0.432c-0.252,0.002-0.457,0.391-0.455,0.865l0.014,6.478     c0.001,0.474,0.208,0.86,0.459,0.858l36.498-0.432c0.252-0.002,0.457-0.391,0.456-0.865l-0.014-6.478     C98.211,306.928,98.004,306.542,97.753,306.544z"/>
			<path style="fill:#F0F0F0;" d="M89.584,293.436H61.428c-0.345,0-0.628,0.283-0.628,0.628v6.945c0,0.345,0.282,0.628,0.628,0.628     h28.156c0.345,0,0.628-0.282,0.628-0.628v-6.945C90.212,293.719,89.929,293.436,89.584,293.436z"/>
		</g>
	</g>
</g>
<g id="Background_Simple" style="display:none;">
	<g style="display:inline;">
		<path style="fill:#407BFF;" d="M285.931,179.931c-52.773,21.871-91.899-45.863-135.607-56.814    c-53.488-13.401-96.907,35.48-80.909,86.701c13.718,43.921,55.174,42.911,87.513,65.033    c44.161,30.21,62.776,76.389,119.735,90.309c110.051,26.895,142.648-131.355,116.184-214.316    c-9.129-28.619-18.4-52.367-53.643-41.902C307.23,118.437,307.667,170.923,285.931,179.931z"/>
		<path style="opacity:0.9;fill:#FFFFFF;" d="M285.931,179.931c-52.773,21.871-91.899-45.863-135.607-56.814    c-53.488-13.401-96.907,35.48-80.909,86.701c13.718,43.921,55.174,42.911,87.513,65.033    c44.161,30.21,62.776,76.389,119.735,90.309c110.051,26.895,142.648-131.355,116.184-214.316    c-9.129-28.619-18.4-52.367-53.643-41.902C307.23,118.437,307.667,170.923,285.931,179.931z"/>
	</g>
</g>
<g id="Shadow_1_">
	<ellipse id="_x3C_Path_x3E__66_" style="fill:#F5F5F5;" cx="250" cy="416.238" rx="193.889" ry="11.323"/>
</g>
<g id="Windows">
	<g>
		<g>
			<rect x="250.54" y="83.113" style="fill:#407BFF;" width="188.855" height="187.922"/>
			<rect x="250.54" y="92.463" style="opacity:0.1;" width="61.65" height="35.368"/>
			<rect x="250.54" y="163.199" style="opacity:0.2;" width="61.65" height="35.368"/>
			<rect x="250.54" y="198.567" style="opacity:0.1;" width="61.65" height="35.368"/>
			<path style="fill:#FFFFFF;" d="M431.686,268.583H316.773c-2.531,0-4.583-2.052-4.583-4.583V92.463h124.079v171.536     C436.269,266.531,434.217,268.583,431.686,268.583z"/>
			<rect x="250.54" y="83.113" style="opacity:0.3;" width="188.855" height="9.35"/>
			<circle style="opacity:0.8;fill:#407BFF;" cx="257.898" cy="87.788" r="1.903"/>
			<circle style="opacity:0.8;fill:#407BFF;" cx="266.565" cy="87.788" r="1.903"/>
			<circle style="opacity:0.8;fill:#407BFF;" cx="275.233" cy="87.788" r="1.903"/>
			<path style="opacity:0.2;fill:#407BFF;" d="M396.929,172.636H324.62c-1.567,0-2.849-1.282-2.849-2.849v-56.843     c0-1.567,1.282-2.849,2.849-2.849h72.309c1.567,0,2.849,1.282,2.849,2.849v56.843     C399.778,171.354,398.496,172.636,396.929,172.636z"/>
			<path style="opacity:0.2;fill:#407BFF;" d="M426.629,153.161h-55.54c-1.204,0-2.188-0.985-2.188-2.188v-43.661     c0-1.204,0.985-2.188,2.188-2.188h55.54c1.204,0,2.188,0.985,2.188,2.188v43.661     C428.817,152.176,427.833,153.161,426.629,153.161z"/>
			<path style="opacity:0.2;fill:#407BFF;" d="M395.559,240.85h-55.54c-1.204,0-2.188-0.985-2.188-2.188v-43.661     c0-1.204,0.985-2.188,2.188-2.188h55.54c1.203,0,2.188,0.985,2.188,2.188v43.661C397.747,239.865,396.762,240.85,395.559,240.85z     "/>
			<rect x="250.54" y="83.113" style="opacity:0.7;fill:#FFFFFF;" width="188.855" height="187.922"/>
		</g>
		<g>
			<rect x="233.204" y="100.448" style="fill:#407BFF;" width="188.855" height="187.922"/>
			<rect x="233.204" y="109.798" style="opacity:0.1;" width="61.65" height="35.368"/>
			<rect x="233.204" y="180.534" style="opacity:0.2;" width="61.65" height="35.368"/>
			<rect x="233.204" y="215.902" style="opacity:0.1;" width="61.65" height="35.368"/>
			<path style="fill:#FFFFFF;" d="M414.351,285.918H299.438c-2.531,0-4.583-2.052-4.583-4.583V109.798h124.079v171.536     C418.934,283.866,416.882,285.918,414.351,285.918z"/>
			<rect x="233.204" y="100.448" style="opacity:0.3;" width="188.855" height="9.35"/>
			<circle style="opacity:0.8;fill:#407BFF;" cx="240.563" cy="105.123" r="1.903"/>
			<circle style="opacity:0.8;fill:#407BFF;" cx="249.23" cy="105.123" r="1.903"/>
			<circle style="opacity:0.8;fill:#407BFF;" cx="257.898" cy="105.123" r="1.903"/>
			<path style="opacity:0.2;fill:#407BFF;" d="M379.593,189.971h-72.309c-1.567,0-2.849-1.282-2.849-2.849v-56.843     c0-1.567,1.282-2.849,2.849-2.849h72.309c1.567,0,2.849,1.282,2.849,2.849v56.843     C382.442,188.689,381.16,189.971,379.593,189.971z"/>
			<path style="opacity:0.2;fill:#407BFF;" d="M410.212,224.877h-55.54c-1.204,0-2.188-0.985-2.188-2.188v-43.661     c0-1.204,0.985-2.188,2.188-2.188h55.54c1.203,0,2.188,0.985,2.188,2.188v43.661     C412.401,223.892,411.416,224.877,410.212,224.877z"/>
			<path style="opacity:0.2;fill:#407BFF;" d="M378.224,258.185h-55.54c-1.203,0-2.188-0.985-2.188-2.188v-43.661     c0-1.204,0.985-2.188,2.188-2.188h55.54c1.203,0,2.188,0.985,2.188,2.188v43.661     C380.412,257.201,379.427,258.185,378.224,258.185z"/>
			<rect x="233.204" y="100.448" style="opacity:0.5;fill:#FFFFFF;" width="188.855" height="187.922"/>
		</g>
		<g>
			<rect x="215.869" y="117.784" style="fill:#407BFF;" width="188.855" height="187.922"/>
			<rect x="215.869" y="127.134" style="opacity:0.1;" width="61.65" height="35.368"/>
			<rect x="215.869" y="197.87" style="opacity:0.2;" width="61.65" height="35.368"/>
			<rect x="215.869" y="233.237" style="opacity:0.1;" width="61.65" height="35.368"/>
			<path style="fill:#FFFFFF;" d="M397.016,303.253H282.103c-2.531,0-4.583-2.052-4.583-4.583V127.134h124.079V298.67     C401.599,301.201,399.547,303.253,397.016,303.253z"/>
			<rect x="215.869" y="117.784" style="opacity:0.3;" width="188.855" height="9.35"/>
			<circle style="opacity:0.8;fill:#407BFF;" cx="223.227" cy="122.459" r="1.903"/>
			<path style="opacity:0.8;fill:#407BFF;" d="M233.798,122.459c0,1.051-0.852,1.903-1.903,1.903c-1.051,0-1.903-0.852-1.903-1.903     c0-1.051,0.852-1.903,1.903-1.903C232.946,120.556,233.798,121.408,233.798,122.459z"/>
			<circle style="opacity:0.8;fill:#407BFF;" cx="240.563" cy="122.459" r="1.903"/>
			<path style="opacity:0.2;fill:#407BFF;" d="M318.355,207.145H209.704c-2.354,0-4.281-1.926-4.281-4.281v-85.413     c0-2.354,1.926-4.281,4.281-4.281h108.652c2.354,0,4.281,1.926,4.281,4.281v85.413     C322.636,205.218,320.71,207.145,318.355,207.145z"/>
			<path style="opacity:0.2;fill:#407BFF;" d="M377.124,231.265h-83.455c-1.808,0-3.288-1.48-3.288-3.288v-65.605     c0-1.808,1.48-3.288,3.288-3.288h83.455c1.809,0,3.288,1.48,3.288,3.288v65.605C380.412,229.786,378.932,231.265,377.124,231.265     z"/>
			<path style="opacity:0.2;fill:#407BFF;" d="M407.238,320.412h-83.455c-1.808,0-3.288-1.48-3.288-3.288v-65.605     c0-1.808,1.48-3.288,3.288-3.288h83.455c1.809,0,3.288,1.48,3.288,3.288v65.605C410.526,318.932,409.047,320.412,407.238,320.412     z"/>
		</g>
	</g>
</g>
<g id="Character_1_">
	<g>
		<path style="fill:#FFC3BD;" d="M160.352,168.159l-7.259,15.233c-2.399,5.079-4.75,10.184-6.839,15.244l-0.754,1.891    c-0.108,0.296-0.143,0.354-0.221,0.603c-0.064,0.232-0.139,0.446-0.196,0.728c-0.243,1.061-0.452,2.331-0.594,3.624    c-0.281,2.605-0.439,5.368-0.538,8.137c-0.195,5.548-0.248,11.236-0.319,16.87l-5.482,0.608c-1.253-5.7-2.163-11.382-2.723-17.224    c-0.257-2.925-0.465-5.866-0.416-8.949c0.029-1.549,0.076-3.122,0.341-4.865c0.054-0.423,0.154-0.899,0.248-1.362    c0.093-0.442,0.271-1.066,0.386-1.444l0.684-2.133c1.872-5.626,4.048-10.986,6.339-16.291c2.308-5.305,4.739-10.48,7.387-15.653    L160.352,168.159z"/>
		<path style="fill:#FFC3BD;" d="M143.553,228.775l2.559,4.788l-8.176,2.281c0,0-1.557-3.852,0.297-6.889L143.553,228.775z"/>
		<polygon style="fill:#FFC3BD;" points="149.247,240.466 141.73,241.06 137.936,235.844 146.112,233.563   "/>
		<path style="fill:#263238;" d="M184.822,128.619c0.118,0.581,0.521,0.989,0.901,0.912c0.38-0.077,0.592-0.61,0.474-1.191    c-0.118-0.581-0.521-0.989-0.901-0.912C184.916,127.505,184.704,128.039,184.822,128.619z"/>
		<path style="fill:#ED847E;" d="M185.29,129.619c0,0,2.001,3.081,3.783,4.402c-0.832,1.168-2.668,1.084-2.668,1.084L185.29,129.619    z"/>
		<path style="fill:#263238;" d="M182.04,125.827c0.094,0,0.187-0.038,0.255-0.112c1.042-1.128,2.283-0.945,2.335-0.937    c0.19,0.029,0.368-0.098,0.399-0.287c0.031-0.189-0.095-0.367-0.284-0.399c-0.065-0.012-1.655-0.262-2.96,1.151    c-0.131,0.141-0.122,0.361,0.019,0.492C181.871,125.796,181.956,125.827,182.04,125.827z"/>
		<path style="fill:#FFC3BD;" d="M168.281,136.787c1.054,5.374,2.105,15.222-1.655,18.808c0,0,1.469,5.452,11.456,5.452    c10.981,0,5.248-5.451,5.248-5.451c-5.993-1.431-5.838-5.878-4.794-10.053L168.281,136.787z"/>
		<path style="fill:#263238;" d="M164.133,157.497c-0.877-1.555-1.842-3.334,0.155-3.892c2.197-0.613,14.223-1.239,18.37-0.087    c4.147,1.151,2.971,4.304,2.971,4.304L164.133,157.497z"/>
		<path style="fill:#407BFF;" d="M133.111,401.376c0.75,0.082,1.487,0.046,1.808-0.291c0.135-0.142,0.259-0.399,0.083-0.822    c-0.092-0.222-0.26-0.378-0.499-0.462c-1.036-0.367-3.206,0.796-3.298,0.846c-0.06,0.033-0.096,0.098-0.09,0.166    c0.005,0.069,0.05,0.128,0.114,0.151C131.593,401.094,132.358,401.295,133.111,401.376z M134.176,400.084    c0.076,0.008,0.147,0.023,0.21,0.046c0.144,0.051,0.24,0.139,0.294,0.268c0.125,0.302,0.021,0.412-0.014,0.448    c-0.358,0.375-1.849,0.221-2.92-0.082C132.418,400.444,133.512,400.012,134.176,400.084z"/>
		<path style="fill:#407BFF;" d="M131.269,400.973c0.028,0.003,0.058-0.001,0.085-0.012c0.801-0.328,2.436-1.77,2.37-2.6    c-0.012-0.151-0.093-0.418-0.502-0.513c-0.265-0.062-0.52-0.014-0.76,0.142c-0.924,0.601-1.328,2.69-1.344,2.778    c-0.012,0.063,0.011,0.127,0.061,0.167C131.204,400.956,131.236,400.969,131.269,400.973z M132.936,398.398    c0.026,0.005,0.051,0.011,0.077,0.019c0.217,0.068,0.218,0.174,0.218,0.219c0.003,0.493-1.138,1.519-1.985,1.947    c0.197-0.594,0.65-1.767,1.27-2.107C132.657,398.398,132.796,398.373,132.936,398.398z"/>
		<path style="fill:#407BFF;" d="M186.165,408.376c0.943,0,1.854-0.13,2.159-0.553c0.107-0.148,0.191-0.401-0.015-0.76    c-0.115-0.202-0.301-0.339-0.551-0.407c-1.223-0.333-3.79,1.131-3.899,1.193c-0.063,0.036-0.097,0.107-0.085,0.179    c0.012,0.072,0.067,0.128,0.138,0.142C184.381,408.263,185.287,408.376,186.165,408.376z M187.331,406.951    c0.122,0,0.236,0.013,0.336,0.04c0.161,0.044,0.272,0.123,0.341,0.243c0.123,0.216,0.078,0.323,0.034,0.385    c-0.342,0.475-2.199,0.486-3.564,0.293C185.158,407.562,186.472,406.951,187.331,406.951z"/>
		<path style="fill:#407BFF;" d="M183.946,408.173c0.024,0,0.048-0.005,0.071-0.015c0.887-0.398,2.643-1.987,2.509-2.817    c-0.032-0.195-0.17-0.438-0.648-0.486c-0.357-0.036-0.68,0.064-0.965,0.298c-0.935,0.768-1.132,2.746-1.141,2.83    c-0.006,0.062,0.021,0.122,0.072,0.158C183.875,408.162,183.911,408.173,183.946,408.173z M185.739,405.195    c0.034,0,0.069,0.002,0.105,0.005c0.313,0.032,0.333,0.155,0.339,0.195c0.081,0.499-1.113,1.747-2.018,2.291    c0.094-0.578,0.356-1.762,0.97-2.265C185.319,405.269,185.518,405.195,185.739,405.195z"/>
		<polygon style="fill:#FFC3BD;" points="175.868,407.999 183.214,407.999 183.946,390.986 176.6,390.986   "/>
		<polygon style="fill:#FFC3BD;" points="122.921,399.89 130.224,400.684 135.733,384.17 128.43,383.376   "/>
		<path style="fill:#263238;" d="M130.835,399.895l-8.205-0.892c-0.299-0.033-0.58,0.147-0.676,0.431l-2.148,6.335    c-0.223,0.657,0.237,1.352,0.928,1.415c2.87,0.262,4.28,0.246,7.888,0.638c2.22,0.241,6.768,0.969,9.834,1.303    c2.998,0.326,3.795-2.654,2.57-3.065c-5.493-1.843-7.428-3.771-9.054-5.586C131.678,400.146,131.271,399.942,130.835,399.895z"/>
		<path style="fill:#263238;" d="M183.166,407.148l-8.023,0c-0.3,0-0.56,0.209-0.626,0.502l-1.451,6.53    c-0.15,0.677,0.363,1.318,1.057,1.307c2.894-0.049,7.076-0.219,10.713-0.219c4.253,0,7.926,0.232,12.914,0.232    c3.016,0,3.853-3.049,2.591-3.325c-5.747-1.257-10.439-1.392-15.406-4.454C184.396,407.388,183.8,407.148,183.166,407.148z"/>
		<path style="fill:#FFC3BD;" d="M194.122,159.355c2.081,0.646,4.407,1.353,6.641,1.949c2.262,0.591,4.521,1.189,6.788,1.681    c4.517,1.015,9.073,1.809,13.419,2.013c1.079,0.046,2.154,0.071,3.18,0.018l0.63-0.026c0.132,0.007,0.348-0.036,0.53-0.052    c0.402-0.062,0.856-0.16,1.337-0.273c1.945-0.482,4.107-1.313,6.253-2.173c4.298-1.766,8.712-3.819,13.068-5.812l3.057,4.591    c-3.817,3.34-7.788,6.314-12.182,8.992c-2.207,1.339-4.481,2.58-7.17,3.64c-0.679,0.266-1.398,0.505-2.185,0.716    c-0.417,0.099-0.795,0.206-1.27,0.281l-0.665,0.109l-0.523,0.062c-1.404,0.177-2.773,0.251-4.132,0.295    c-5.423,0.107-10.57-0.556-15.606-1.501c-2.511-0.501-4.999-1.048-7.449-1.725c-2.477-0.681-4.836-1.349-7.378-2.266    L194.122,159.355z"/>
		<g>
			<path style="fill:#407BFF;" d="M153.472,157.255c-6.885,1.578-13.847,21.71-13.847,21.71l14.173,10.166     c0,0,3.959-9.377,7.854-17.576C165.734,162.964,160.512,155.641,153.472,157.255z"/>
			<path style="opacity:0.3;" d="M153.472,157.255c-6.885,1.578-13.847,21.71-13.847,21.71l14.173,10.166     c0,0,3.959-9.377,7.854-17.576C165.734,162.964,160.512,155.641,153.472,157.255z"/>
		</g>
		<g>
			<path style="fill:#407BFF;" d="M194.629,157.634c0,0,7.819,8.832,0.435,63.497c-11.839,0-33.532,0-39.293,0     c-0.271-6.032,3.519-35.456-2.298-63.876c0,0,6.735-1.352,13.153-1.661c5.021-0.242,12.29-0.402,16.703,0.001     C189.148,156.126,194.629,157.634,194.629,157.634z"/>
			<path style="opacity:0.3;" d="M194.629,157.634c0,0,7.819,8.832,0.435,63.497c-11.839,0-33.532,0-39.293,0     c-0.271-6.032,3.519-35.456-2.298-63.876c0,0,6.735-1.352,13.153-1.661c5.021-0.242,12.29-0.402,16.703,0.001     C189.148,156.126,194.629,157.634,194.629,157.634z"/>
			<path style="opacity:0.3;" d="M194.628,157.63c0,0-0.88-0.24-2.31-0.57c-4.32,0.45-6.42,5.42-5.26,10.58     c0.86,3.84,6.44,9.09,11.18,12.96C198.128,161.59,194.628,157.63,194.628,157.63z"/>
		</g>
		<g>
			<path style="fill:#407BFF;" d="M185.023,168.906c3.507,6.085,22.699,12.017,22.699,12.017l6.438-17.26     c0,0-10.975-2.971-19.531-6.029C184.059,153.857,181.175,162.227,185.023,168.906z"/>
			<path style="opacity:0.3;" d="M185.023,168.906c3.507,6.085,22.699,12.017,22.699,12.017l6.438-17.26     c0,0-10.975-2.971-19.531-6.029C184.059,153.857,181.175,162.227,185.023,168.906z"/>
		</g>
		<path style="fill:#FFC3BD;" d="M244.753,158.364l1.222-7.654l6.78,1.939c0,0,1.014,6.815-3.945,8.824L244.753,158.364z"/>
		<polygon style="fill:#FFC3BD;" points="248.887,143.963 254.606,148.77 252.754,152.649 245.974,150.709   "/>
		<g>
			<polygon style="opacity:0.2;" points="183.945,390.991 183.569,399.76 176.219,399.76 176.595,390.991    "/>
			<polygon style="opacity:0.2;" points="128.427,383.381 135.733,384.175 132.89,392.687 125.583,391.892    "/>
		</g>
		<path style="fill:#FFC3BD;" d="M165.204,131.325c1.888,7.042,2.634,11.26,6.98,14.188c6.537,4.405,14.676-0.65,14.931-8.115    c0.229-6.719-2.896-17.107-10.453-18.526C169.216,117.475,163.317,124.283,165.204,131.325z"/>
		<path style="fill:#263238;" d="M181.768,110.138c0.032,0.864-0.572,1.645-1.42,2.359c-0.331-3.694-1.802-7.255-5.085-8.972    c0.535,1.571-1.053,4.067-3.263,6.601c-0.551-1.836-1.645-3.394-3.497-4.362c-1.5,5.807-6.306,6.768-10.111,10.347    c-1.838,1.729-2.051,4.165-1.274,6.36c-0.986-0.449-2.191-0.344-3.049,1.902c0.504-0.295,1.456-0.836,2.752-0.857    c-0.678,0.643-1.216,1.751-0.818,4.252c0.673,4.229,9.363,16.799,14.855,16.173c6.048-0.689,7.103-7.641,7.246-13.915    c0.078-0.04,0.149-0.068,0.229-0.111C182.49,127.668,187.626,115.851,181.768,110.138z"/>
		<path style="fill:#FFC3BD;" d="M175.249,131.442c0.767,1.749,2.219,3.125,3.624,3.856c2.113,1.1,3.301-0.509,2.823-2.623    c-0.43-1.903-2.049-4.769-4.223-5.004C175.332,127.441,174.372,129.443,175.249,131.442z"/>
		<path style="fill:#407BFF;" d="M181.125,221.131c0,0-8.337,56.142-12.914,77.175c-5.012,23.033-31.371,93.558-31.371,93.558    l-13.233-2.434c0,0,19.706-66.232,22.566-89.036c3.104-24.75,9.598-79.263,9.598-79.263H181.125z"/>
		<path style="opacity:0.2;" d="M175.856,241.135c-9.64,1.89-8.62,37.84-7.46,56.33c2.78-13.07,6.85-38.22,9.63-56.07    C177.386,241.075,176.666,240.975,175.856,241.135z"/>
		<path style="fill:#407BFF;" d="M195.064,221.131c0,0,1.012,54.927,0.213,77.33c-0.831,23.302-8.97,99.601-8.97,99.601h-12.445    c0,0-0.457-74.937-1.01-97.822c-0.604-24.949-3.616-79.108-3.616-79.108H195.064z"/>
		<path style="opacity:0.2;" d="M184.211,389.049l-0.538-0.056c2.192-21.111,7.363-72.19,8.017-90.502    c0.67-18.764,0.062-60.679-0.141-73.078l0.544-0.064c0.202,12.405,0.811,54.342,0.141,73.13    C191.578,316.822,186.405,367.928,184.211,389.049z"/>
		<g>
			<path style="fill:#407BFF;" d="M139.85,387.377c0.057,0.01-2.301,4.83-2.301,4.83l-14.889-2.738l1.107-4.485L139.85,387.377z"/>
			<path style="opacity:0.5;" d="M139.85,387.377c0.057,0.01-2.301,4.83-2.301,4.83l-14.889-2.738l1.107-4.485L139.85,387.377z"/>
		</g>
		<g>
			<path style="fill:#407BFF;" d="M188.701,393.105c0.057,0-0.702,5.167-0.702,5.167H172.86l-0.409-4.611L188.701,393.105z"/>
			<path style="opacity:0.5;" d="M188.701,393.105c0.057,0-0.702,5.167-0.702,5.167H172.86l-0.409-4.611L188.701,393.105z"/>
		</g>
	</g>
</g>
</svg>