<?xml version="1.0" encoding="utf-8"?>
<!-- Generator: Adobe Illustrator 27.5.0, SVG Export Plug-In . SVG Version: 6.00 Build 0)  -->
<svg version="1.1" xmlns="http://www.w3.org/2000/svg" xmlns:xlink="http://www.w3.org/1999/xlink" x="0px" y="0px"
	 viewBox="0 0 500 500" style="enable-background:new 0 0 500 500;" xml:space="preserve">
<g id="Background_Complete">
	<g>
		<rect y="382.398" style="fill:#EBEBEB;" width="500" height="0.25"/>
		<rect x="396.833" y="398.494" style="fill:#EBEBEB;" width="53.068" height="0.25"/>
		<rect x="272.556" y="395.361" style="fill:#EBEBEB;" width="58.665" height="0.25"/>
		<rect x="380.195" y="393.917" style="fill:#EBEBEB;" width="19.192" height="0.25"/>
		<rect x="100.473" y="390.888" style="fill:#EBEBEB;" width="43.193" height="0.25"/>
		<rect x="79.459" y="390.888" style="fill:#EBEBEB;" width="15.444" height="0.25"/>
		<rect x="131.471" y="395.111" style="fill:#EBEBEB;" width="54.195" height="0.25"/>
		<path style="fill:#EBEBEB;" d="M237.014,337.8H43.915c-3.147,0-5.708-2.561-5.708-5.708V60.66c0-3.147,2.561-5.708,5.708-5.708
			h193.099c3.146,0,5.707,2.561,5.707,5.708v271.432C242.721,335.239,240.16,337.8,237.014,337.8z M43.915,55.203
			c-3.01,0-5.458,2.448-5.458,5.458v271.432c0,3.01,2.448,5.458,5.458,5.458h193.099c3.009,0,5.457-2.448,5.457-5.458V60.66
			c0-3.009-2.448-5.458-5.457-5.458H43.915z"/>
		<path style="fill:#EBEBEB;" d="M453.31,337.8H260.212c-3.147,0-5.707-2.561-5.707-5.708V60.66c0-3.147,2.561-5.708,5.707-5.708
			H453.31c3.148,0,5.708,2.561,5.708,5.708v271.432C459.019,335.239,456.458,337.8,453.31,337.8z M260.212,55.203
			c-3.009,0-5.457,2.448-5.457,5.458v271.432c0,3.01,2.448,5.458,5.457,5.458H453.31c3.01,0,5.458-2.448,5.458-5.458V60.66
			c0-3.009-2.448-5.458-5.458-5.458H260.212z"/>
	</g>
	<g>
		<path style="fill:#F5F5F5;" d="M372.777,277.777c-25.58-33.162-37.419-65.667-68.517-17.831
			c-13.995-14.783-26.294-29.576-35.247-43.523c-48.449-75.473-97.162-29.027-136.718,22.255
			c-39.556,51.283-85.295,143.716-85.295,143.716h149.847h252.762h9.159C458.767,382.394,398.511,311.14,372.777,277.777z"/>
		<g>
			<path style="fill:#F0F0F0;" d="M284.972,304.418c-13.255-24.867-19.342-49.264-35.577-12.668
				c-15.441,34.806-55.04,90.644-55.04,90.644h134.909C329.263,382.394,298.227,329.284,284.972,304.418z"/>
		</g>
		<path style="fill:#FAFAFA;" d="M66.173,89.455c1.279,0.046,2.217,0.358,2.775,0.855c6.112-2.971,13.205-4.797,19.127-4.594
			c3.011,0.098,5.375,0.711,7.032,1.711c6.508-4.485,14.903-7.663,21.084-7.663c3.512,0,5.735,1.029,6.578,2.745
			c6.742-3.011,13.716-4.86,19.398-4.86c9.061,0,12.187,4.699,8.74,11.298c4.274,0.118,7.872,2.723,4.801,5.063H55.641
			c0.121-0.145,0.242-0.289,0.379-0.439C58.219,91.183,62.76,89.339,66.173,89.455z"/>
		<path style="fill:#FAFAFA;" d="M169.516,118.573c0.752,0.029,1.286,0.256,1.589,0.622c3.705-2.164,7.928-3.492,11.377-3.345
			c1.761,0.071,3.116,0.521,4.034,1.248c0.004,0.004,0.005,0,0.005,0c3.992-3.261,9.039-5.573,12.655-5.573
			c2.058,0,3.313,0.748,3.726,1.996c4.071-2.194,8.228-3.538,11.553-3.538c4.122,0,6.023,2.067,5.58,5.249
			c1.95-0.924,3.878-1.471,5.466-1.471c2.201,0,3.273,1.046,3.159,2.685c0.194,0,0.386,0.008,0.575,0.025
			c3.369,0.273,4.74,2.391,3.219,4.812h-68.816C165.083,119.686,167.631,118.493,169.516,118.573z"/>
		<path style="fill:#FAFAFA;" d="M78.125,149.551c0.52,0.02,0.889,0.177,1.099,0.43c2.562-1.496,5.482-2.415,7.866-2.313
			c1.218,0.049,2.155,0.36,2.789,0.863c0.003,0.003,0.004,0,0.004,0c2.76-2.255,6.25-3.853,8.75-3.853
			c1.423,0,2.29,0.517,2.576,1.38c2.815-1.517,5.689-2.447,7.988-2.447c2.85,0,4.165,1.43,3.858,3.629
			c1.348-0.639,2.681-1.017,3.78-1.017c1.522,0,2.263,0.723,2.185,1.857c0.134,0,0.267,0.006,0.397,0.017
			c2.33,0.189,3.277,1.653,2.226,3.327H74.061C75.06,150.32,76.822,149.495,78.125,149.551z"/>
		<circle style="fill:#F0F0F0;" cx="398.81" cy="105.167" r="34.889"/>
		<path style="fill:#FAFAFA;" d="M313.652,104.149c1.279,0.046,2.217,0.358,2.775,0.855c6.112-2.971,13.205-4.797,19.128-4.594
			c3.011,0.098,5.375,0.711,7.032,1.711c6.508-4.485,14.903-7.663,21.084-7.663c3.512,0,5.735,1.029,6.578,2.745
			c6.742-3.011,13.716-4.86,19.398-4.86c9.061,0,12.187,4.699,8.74,11.298c4.274,0.118,7.872,2.723,4.802,5.063H303.12
			c0.121-0.145,0.242-0.289,0.379-0.439C305.697,105.877,310.239,104.033,313.652,104.149z"/>
		<path style="fill:#FAFAFA;" d="M380.334,160.124c0.752,0.029,1.286,0.256,1.589,0.622c3.705-2.164,7.928-3.492,11.377-3.345
			c1.761,0.071,3.116,0.521,4.034,1.248c0.004,0.004,0.005,0,0.005,0c3.992-3.261,9.039-5.572,12.655-5.572
			c2.058,0,3.313,0.748,3.726,1.996c4.071-2.194,8.228-3.538,11.553-3.538c4.121,0,6.023,2.068,5.58,5.249
			c1.95-0.924,3.878-1.471,5.466-1.471c2.201,0,3.273,1.046,3.159,2.685c0.194,0,0.386,0.008,0.575,0.025
			c3.369,0.273,4.74,2.391,3.219,4.812h-68.816C375.9,161.238,378.448,160.044,380.334,160.124z"/>
	</g>
</g>
<g id="Background_Simple" style="display:none;">
	<g style="display:inline;">
		<g>
			<path style="fill:#407BFF;" d="M430.123,179.17c34.545,91.117-82.41,137.548-149.332,124.593
				c-26.579-5.145-37.183-13.777-63.644-5.352c-19.226,6.121-29.25,27.386-50.447,31.208c-46.48,8.38-79.081-34.884-89.687-73.427
				c-11.006-39.993-2.32-65.862,38.559-85.232c17.672-8.373,36.579-2.882,52.211-8.647c32.119-11.847,30.996-32.983,50.175-54.569
				C288.346,28.525,398.751,96.416,430.123,179.17z"/>
		</g>
		<g style="opacity:0.9;">
			<path style="fill:#FFFFFF;" d="M430.123,179.17c34.545,91.117-82.41,137.548-149.332,124.593
				c-26.579-5.145-37.183-13.777-63.644-5.352c-19.226,6.121-29.25,27.386-50.447,31.208c-46.48,8.38-79.081-34.884-89.687-73.427
				c-11.006-39.993-2.32-65.862,38.559-85.232c17.672-8.373,36.579-2.882,52.211-8.647c32.119-11.847,30.996-32.983,50.175-54.569
				C288.346,28.525,398.751,96.416,430.123,179.17z"/>
		</g>
	</g>
</g>
<g id="Shadow_1_">
	<ellipse id="_x3C_Path_x3E__221_" style="fill:#F5F5F5;" cx="250" cy="416.238" rx="193.889" ry="11.323"/>
</g>
<g id="Goal">
	<g>
		<g>
			<g>
				
					<rect x="391.734" y="284.62" transform="matrix(0.956 -0.2933 0.2933 0.956 -67.4113 127.7144)" style="fill:#407BFF;" width="1" height="8.12"/>
				
					<rect x="384.891" y="254.293" transform="matrix(0.956 -0.2932 0.2932 0.956 -61.1667 124.7169)" style="fill:#407BFF;" width="1" height="24.157"/>
				<path style="fill:#407BFF;" d="M349.013,157.996h-35.586l-74.143,241.733c-2.483,8.097,3.572,16.288,12.041,16.288h159.788
					c8.469,0,14.525-8.191,12.041-16.288L349.013,157.996z"/>
				<path style="opacity:0.2;fill:#263238;" d="M349.013,157.996H331.22l-22.554,258.021h102.448
					c8.469,0,14.525-8.191,12.041-16.288L349.013,157.996z"/>
				<path style="opacity:0.2;fill:#263238;" d="M349.013,157.996h-8.35l25.449,258.021h45.003c8.469,0,14.525-8.191,12.041-16.288
					L349.013,157.996z"/>
				<path style="opacity:0.2;fill:#FFFFFF;" d="M313.427,157.996H322l-61.333,258.021h-9.341c-8.469,0-14.525-8.191-12.041-16.288
					L313.427,157.996z"/>
			</g>
			<g>
				<path style="fill:#407BFF;" d="M330.942,148.389L330.942,148.389c10.676,0,20.023,7.165,22.797,17.475l11.484,42.692
					l-3.054,13.5l-11.68-11.083l-11.07,25.417l-10.077-17.667l-12.52,17.667l-5.446-26.5L299.975,225l-2.697-17.444l10.82-41.514
					C310.808,155.645,320.197,148.389,330.942,148.389z"/>
				<path style="opacity:0.7;fill:#FFFFFF;" d="M330.942,148.389L330.942,148.389c10.676,0,20.023,7.165,22.797,17.475
					l11.484,42.692l-3.054,13.5l-11.68-11.083l-11.07,25.417l-10.077-17.667l-12.52,17.667l-5.446-26.5L299.975,225l-2.697-17.444
					l10.82-41.514C310.808,155.645,320.197,148.389,330.942,148.389z"/>
			</g>
		</g>
		<g>
			<path style="fill:#FFFFFF;" d="M308.667,417.017c-0.378,0-0.74-0.215-0.909-0.581l-16.945-36.739
				c-0.18-0.391-0.09-0.854,0.224-1.148l65.971-61.818l-40.989-79.885c-0.098-0.192-0.132-0.41-0.096-0.622l14.341-85.333
				c0.091-0.545,0.607-0.914,1.152-0.821c0.544,0.092,0.912,0.607,0.82,1.152l-14.286,85.006l41.182,80.26
				c0.204,0.397,0.12,0.881-0.206,1.186l-65.995,61.84l16.643,36.084c0.231,0.501,0.012,1.096-0.489,1.327
				C308.95,416.988,308.807,417.017,308.667,417.017z"/>
			<g>
				<g>
					
						<ellipse transform="matrix(0.2298 -0.9732 0.9732 0.2298 -32.5304 592.785)" style="fill:#407BFF;" cx="358.242" cy="316.944" rx="10.167" ry="10.167"/>
					<path style="fill:#FFFFFF;" d="M358.242,328.111c-6.157,0-11.167-5.009-11.167-11.167c0-6.157,5.009-11.167,11.167-11.167
						c6.157,0,11.167,5.009,11.167,11.167C369.409,323.102,364.4,328.111,358.242,328.111z M358.242,307.778
						c-5.054,0-9.167,4.112-9.167,9.167c0,5.055,4.112,9.167,9.167,9.167c5.055,0,9.167-4.112,9.167-9.167
						C367.409,311.89,363.297,307.778,358.242,307.778z"/>
				</g>
				<g>
					
						<ellipse transform="matrix(0.1602 -0.9871 0.9871 0.1602 -129.3878 606.4784)" style="fill:#407BFF;" cx="291.721" cy="379.278" rx="10.167" ry="10.167"/>
					<path style="fill:#FFFFFF;" d="M291.721,390.444c-6.157,0-11.167-5.009-11.167-11.167c0-6.157,5.009-11.167,11.167-11.167
						c6.157,0,11.167,5.009,11.167,11.167C302.888,385.435,297.879,390.444,291.721,390.444z M291.721,370.111
						c-5.055,0-9.167,4.112-9.167,9.167s4.112,9.167,9.167,9.167c5.054,0,9.167-4.112,9.167-9.167S296.776,370.111,291.721,370.111z
						"/>
				</g>
				<g>
					<circle style="fill:#407BFF;" cx="316.909" cy="236.389" r="10.167"/>
					<path style="fill:#FFFFFF;" d="M316.909,247.556c-6.157,0-11.167-5.009-11.167-11.167c0-6.157,5.009-11.167,11.167-11.167
						c6.157,0,11.167,5.009,11.167,11.167C328.076,242.546,323.066,247.556,316.909,247.556z M316.909,227.222
						c-5.054,0-9.167,4.112-9.167,9.167c0,5.055,4.112,9.167,9.167,9.167c5.055,0,9.167-4.112,9.167-9.167
						C326.076,231.335,321.964,227.222,316.909,227.222z"/>
				</g>
				<g>
					
						<ellipse transform="matrix(0.1602 -0.9871 0.9871 0.1602 129.0845 453.8318)" style="fill:#407BFF;" cx="331.25" cy="151.056" rx="10.167" ry="10.167"/>
					<path style="fill:#FFFFFF;" d="M331.25,162.222c-6.157,0-11.167-5.009-11.167-11.167c0-6.158,5.009-11.167,11.167-11.167
						s11.167,5.009,11.167,11.167C342.417,157.213,337.407,162.222,331.25,162.222z M331.25,141.889
						c-5.054,0-9.167,4.112-9.167,9.167c0,5.054,4.112,9.167,9.167,9.167s9.167-4.112,9.167-9.167
						C340.417,146.001,336.304,141.889,331.25,141.889z"/>
				</g>
			</g>
		</g>
		<g>
			<path style="fill:#407BFF;" d="M331.22,151.111c-0.552,0-1-0.448-1-1v-44.945c0-0.552,0.448-1,1-1c0.552,0,1,0.448,1,1v44.945
				C332.22,150.664,331.772,151.111,331.22,151.111z"/>
			<path style="fill:#407BFF;" d="M290.89,123.861c8.962,3.056,17.924-3.055,26.887,0c0-5.093,0-10.185,0-15.278
				c-8.962-3.055-17.924,3.056-26.887,0C290.89,113.676,290.89,118.769,290.89,123.861z"/>
			<path style="opacity:0.2;" d="M300.71,109.153v15.27c5.69-0.75,11.38-2.5,17.07-0.56v-15.28
				C312.09,106.643,306.4,108.393,300.71,109.153z"/>
			<path style="fill:#407BFF;" d="M304.333,120.445c8.962,3.055,17.924-3.055,26.887,0c0-5.093,0-10.185,0-15.278
				c-8.962-3.056-17.924,3.056-26.887,0C304.333,110.259,304.333,115.352,304.333,120.445z"/>
		</g>
	</g>
</g>
<g id="Character_1_">
	<g>
		<g>
			<g>
				<path style="fill:#7F3E3B;" d="M158.718,215.633l3.112,5.004l-8.929,1.14c0,0,0.184-1.959,0.85-4.895
					c0.278-1.226,1.483-2.007,2.711-1.74L158.718,215.633z"/>
				<polygon style="fill:#7F3E3B;" points="161.093,228.649 154.143,226.516 152.9,221.777 161.829,220.637 				"/>
			</g>
			<g>
				<g>
					<line style="opacity:0.2;" x1="122.194" y1="158.213" x2="122.194" y2="158.213"/>
				</g>
			</g>
			<g>
				<g>
					<path style="fill:#7F3E3B;" d="M184.766,159.643c1.067-0.33,2.343-0.777,3.525-1.179c1.203-0.418,2.401-0.862,3.588-1.326
						c2.368-0.942,4.724-1.904,6.982-2.997c4.511-2.131,8.864-4.654,11.998-7.654c0.795-0.737,1.45-1.513,2.007-2.282l0.202-0.289
						c0.048-0.015,0.26-0.511-0.144,0.425c-0.23,0.623-0.251,1.274-0.207,1.667c0.01,0.1,0.025,0.2,0.047,0.298l0.047,0.211
						c0.018,0.065,0.041,0.133,0.064,0.192l0.043,0.118c0.134,0.296,0.174,0.279,0.149,0.223c-0.043-0.077-0.117-0.208-0.238-0.369
						c-0.487-0.659-1.351-1.508-2.239-2.299c-0.907-0.797-1.871-1.625-2.874-2.421c-4.029-3.195-8.402-6.342-12.679-9.491
						l2.601-4.864c5.177,2.006,10.118,4.294,15.007,7.142c1.218,0.724,2.448,1.461,3.662,2.322c1.225,0.873,2.438,1.755,3.766,3.088
						c0.662,0.729,1.387,1.393,2.159,3.182l0.132,0.354l0.126,0.437c0.039,0.152,0.074,0.285,0.105,0.456
						c0.031,0.182,0.056,0.365,0.076,0.549c0.083,0.727,0.017,1.719-0.321,2.66c-0.524,1.252-0.513,1.03-0.639,1.302l-0.334,0.567
						c-0.909,1.486-1.933,2.834-3.028,4.015c-4.419,4.726-9.481,7.793-14.583,10.437c-2.571,1.29-5.165,2.463-7.813,3.479
						c-1.321,0.514-2.649,1.003-3.991,1.466c-1.363,0.476-2.646,0.873-4.163,1.298L184.766,159.643z"/>
				</g>
				<polygon style="fill:#7F3E3B;" points="188.834,125.744 183.506,129.222 191.128,130.965 193.083,125.59 				"/>
				<path style="fill:#7F3E3B;" d="M199.612,128.417l-6.529-2.826l-1.955,5.374c0,0,5.188,5.439,8.484,1.808V128.417z"/>
				<path style="fill:#7F3E3B;" d="M160.731,169.194c-2.462,4.453-4.948,9.062-7.321,13.619c-2.364,4.565-4.7,9.167-6.641,13.749
					c-0.504,1.146-0.948,2.28-1.374,3.411l-0.146,0.374c0.009-0.037,0.002-0.081,0.005-0.108c-0.009-0.067-0.02-0.092-0.037-0.082
					c-0.024,0.028-0.045,0.216,0.022,0.516c0.124,0.6,0.525,1.49,1.066,2.376c0.545,0.893,1.194,1.841,1.928,2.765
					c2.951,3.708,6.711,7.374,10.41,10.813l-3.08,4.576c-4.923-2.581-9.45-5.51-13.717-9.475c-1.054-1.008-2.105-2.076-3.086-3.327
					c-0.975-1.259-1.938-2.653-2.692-4.539c-0.374-0.939-0.674-2.051-0.757-3.338c-0.036-0.647-0.021-1.333,0.096-2.046
					c0.049-0.353,0.137-0.712,0.232-1.067l0.167-0.562c0.406-1.366,0.831-2.715,1.297-4.017c1.845-5.243,4.061-10.15,6.381-15.009
					c2.372-4.839,4.846-9.521,7.608-14.206L160.731,169.194z"/>
				<path style="fill:#7F3E3B;" d="M167.741,137.161c-0.649,6.756,0.309,13.298-1.203,19.172c0,0,1.68,5.452,11.666,5.452
					c10.981,0,5.037-5.451,5.037-5.451c-6.048-1.431-6.065-5.878-5.183-10.053L167.741,137.161z"/>
				<path style="fill:#263238;" d="M165.171,158.204c-0.854-1.726-1.797-3.701-0.028-4.319c1.946-0.681,12.714-1.375,16.486-0.097
					c3.771,1.278,2.851,4.778,2.851,4.778L165.171,158.204z"/>
				<path style="fill:#407BFF;" d="M143.759,404.074c-0.726-0.155-1.477-0.472-1.994-0.72c-0.069-0.033-0.112-0.104-0.108-0.181
					c0.004-0.077,0.053-0.143,0.125-0.169c0.324-0.118,3.188-1.134,3.961-0.503c0.12,0.098,0.253,0.28,0.207,0.594
					c-0.063,0.421-0.262,0.725-0.594,0.901C144.937,404.218,144.356,404.201,143.759,404.074z M142.36,403.207
					c1.276,0.551,2.311,0.721,2.818,0.452c0.222-0.118,0.352-0.321,0.396-0.621c0.022-0.146-0.027-0.207-0.071-0.243
					C145.101,402.467,143.515,402.831,142.36,403.207z"/>
				<path style="fill:#407BFF;" d="M141.807,403.368c-0.035-0.008-0.068-0.025-0.095-0.052c-0.049-0.049-0.068-0.122-0.048-0.188
					c0.028-0.095,0.698-2.32,1.769-2.871c0.279-0.143,0.563-0.167,0.843-0.07h0c0.433,0.149,0.491,0.448,0.488,0.613
					c-0.02,0.911-1.957,2.296-2.864,2.564C141.87,403.374,141.838,403.375,141.807,403.368z M144.07,400.524
					c-0.153-0.033-0.305-0.009-0.462,0.072c-0.687,0.353-1.218,1.62-1.451,2.262c0.938-0.441,2.215-1.528,2.227-2.066
					c0.001-0.049,0.004-0.164-0.231-0.246l0,0C144.125,400.537,144.097,400.53,144.07,400.524z"/>
				<path style="fill:#407BFF;" d="M195.293,409.311c-0.742,0-1.543-0.154-2.1-0.289c-0.074-0.018-0.131-0.079-0.143-0.154
					c-0.012-0.076,0.022-0.151,0.087-0.192c0.292-0.183,2.882-1.773,3.769-1.317c0.138,0.071,0.306,0.222,0.326,0.538
					c0.027,0.425-0.106,0.763-0.393,1.005C196.475,409.206,195.904,409.311,195.293,409.311z M193.744,408.755
					c1.363,0.273,2.411,0.224,2.85-0.145c0.193-0.162,0.277-0.387,0.258-0.69c-0.009-0.148-0.069-0.197-0.12-0.223
					C196.271,407.46,194.796,408.146,193.744,408.755z"/>
				<path style="fill:#407BFF;" d="M193.237,409.027c-0.036,0-0.072-0.01-0.104-0.031c-0.058-0.038-0.091-0.105-0.086-0.174
					c0.008-0.098,0.2-2.414,1.132-3.176c0.243-0.198,0.516-0.281,0.81-0.245h0c0.454,0.056,0.574,0.336,0.605,0.498
					c0.17,0.895-1.436,2.653-2.267,3.104C193.3,409.02,193.268,409.027,193.237,409.027z M194.857,405.774
					c-0.156,0-0.3,0.055-0.437,0.167c-0.598,0.488-0.854,1.838-0.948,2.515c0.826-0.627,1.849-1.956,1.748-2.484
					c-0.009-0.048-0.031-0.161-0.278-0.192l0,0C194.914,405.776,194.886,405.774,194.857,405.774z"/>
				<polygon style="fill:#7F3E3B;" points="184.597,408.737 191.943,408.737 192.018,391.724 184.672,391.724 				"/>
				<polygon style="fill:#7F3E3B;" points="133.131,401.98 140.147,403.341 145.985,386.659 138.969,385.299 				"/>
				<path style="fill:#263238;" d="M141.096,402.358l-8.072-1.719c-0.294-0.063-0.584,0.089-0.697,0.365l-2.533,6.137
					c-0.263,0.637,0.149,1.379,0.829,1.512c2.827,0.551,4.225,0.676,7.774,1.432c2.184,0.465,6.644,1.652,9.66,2.294
					c2.95,0.628,3.93-2.281,2.742-2.816c-5.325-2.4-7.119-4.528-8.614-6.512C141.916,402.695,141.526,402.45,141.096,402.358z"/>
				<path style="fill:#263238;" d="M191.862,407.886h-8.023c-0.3,0-0.552,0.209-0.606,0.502l-1.199,6.53
					c-0.124,0.677,0.415,1.319,1.107,1.307c2.892-0.049,7.067-0.219,10.705-0.219c4.253,0,4.461,0.232,9.449,0.232
					c3.016,0,3.735-3.049,2.462-3.325c-5.796-1.257-7.019-1.392-12.103-4.454C193.101,408.126,192.496,407.886,191.862,407.886z"/>
				<path style="fill:#263238;" d="M154.443,157.802c-6.758,1.844-14.752,20.542-14.752,20.542l15.522,8.767
					c0,0,3.63-6.617,7.208-14.817C166.169,163.702,165.718,154.725,154.443,157.802z"/>
				<path style="fill:#263238;" d="M198.351,190.81c-0.053,8.2-0.55,18.4-1.771,31.06h-39.3c-0.476-5.704,1.873-32.346-3.718-59.266
					c-0.532-2.56,1.172-5.048,3.759-5.426c2.378-0.348,5.361-0.706,8.288-0.848c5.011-0.24,12.275-0.4,16.7,0
					c2.473,0.225,4.893,0.625,6.86,1.012c3.194,0.628,5.788,2.972,6.661,6.108c0.875,3.142,1.786,8.068,2.237,15.631
					C198.268,182.45,198.378,186.33,198.351,190.81z"/>
				<path style="fill:#263238;" d="M180.68,171.985c6.123,3.381,20.193-0.485,20.193-0.485l-0.734-19.053
					c0,0-6.241,0.514-14.821,4.006C175.736,160.354,173.782,168.177,180.68,171.985z"/>
				<g>
					<g>
						<path style="fill:#407BFF;" d="M188.723,154.778c0,0-2.845,1-3.894,1.308c-3.771,4.141-6.117,13.136-6.117,13.136l4.794,6.333
							C181.69,166.167,188.723,154.778,188.723,154.778z"/>
						<path style="opacity:0.2;" d="M188.723,154.778c0,0-2.845,1-3.894,1.308c-3.771,4.141-6.117,13.136-6.117,13.136l4.794,6.333
							C181.69,166.167,188.723,154.778,188.723,154.778z"/>
					</g>
					<g>
						<path style="fill:#407BFF;" d="M198.355,201.945c-3.746,2.889-11.199-3.833-11.199-3.833l0.222,3.41
							c6.833,5.708,10.875,2.875,10.875,2.875S198.49,203.333,198.355,201.945z"/>
						<path style="opacity:0.2;" d="M198.355,201.945c-3.746,2.889-11.199-3.833-11.199-3.833l0.222,3.41
							c6.833,5.708,10.875,2.875,10.875,2.875S198.49,203.333,198.355,201.945z"/>
					</g>
					<g>
						<path style="fill:#407BFF;" d="M163.42,156.086c-2.167,0.206-3.329,0.539-3.329,0.539s-2.734,5.979-1.109,13.521l4.312-1.938
							C163.295,168.208,161.92,161.672,163.42,156.086z"/>
						<path style="opacity:0.2;" d="M163.42,156.086c-2.167,0.206-3.329,0.539-3.329,0.539s-2.734,5.979-1.109,13.521l4.312-1.938
							C163.295,168.208,161.92,161.672,163.42,156.086z"/>
					</g>
					<path style="fill:#407BFF;" d="M158.355,169.25c2.341-3.669,20.386-3.257,24.284-0.25c3.899,3.007,8.61,35.833,2.841,39.5
						s-32.391,5.417-32.58-2c-0.189-7.417,5.871-20.318,5.145-24.583C157.319,177.652,155.164,174.25,158.355,169.25z"/>
					<path style="opacity:0.4;fill:#263238;" d="M158.602,180.712c0,0,6.577,2.562,20.494-0.547
						C176.391,181.578,162.088,184.809,158.602,180.712z"/>
					<path style="opacity:0.4;fill:#263238;" d="M166.545,179.75c0.086,0.614-0.254,1.111-0.76,1.111
						c-0.506,0-0.987-0.497-1.073-1.111c-0.086-0.614,0.254-1.111,0.76-1.111C165.979,178.639,166.459,179.136,166.545,179.75z"/>
					<path style="opacity:0.4;fill:#263238;" d="M181.879,209.028c-0.024,0-0.049-0.003-0.073-0.011
						c-0.132-0.041-0.206-0.18-0.166-0.312c2.122-6.951,1.859-16.535-0.783-28.486c-1.095-4.955,0.154-9.757,0.814-10.746
						c0.076-0.115,0.232-0.146,0.347-0.069c0.115,0.077,0.146,0.232,0.069,0.347c-0.681,1.021-1.755,5.778-0.742,10.361
						c2.66,12.036,2.92,21.705,0.773,28.739C182.085,208.958,181.986,209.028,181.879,209.028z"/>
				</g>
				<g style="opacity:0.2;">
					<polygon points="192.017,391.729 191.98,400.498 184.63,400.498 184.667,391.729 					"/>
					<polygon points="138.966,385.303 145.985,386.664 142.972,395.262 135.954,393.901 					"/>
				</g>
				<path style="fill:#407BFF;" d="M182.639,221.87c0,0-6.17,56.142-9.934,77.175c-4.123,23.033-25.474,95.33-25.474,95.33
					l-13.16-2.802c0,0,14.697-67.635,16.676-90.44c2.148-24.75,6.538-79.263,6.538-79.263H182.639z"/>
				<path style="fill:#263238;" d="M150.178,389.934c0.056,0.012-2.24,4.805-2.24,4.805l-14.807-3.153l1.058-4.489L150.178,389.934z
					"/>
				<path style="opacity:0.2;" d="M178.142,241.873c-9.567,1.89-7.159,37.84-5.285,56.33c2.275-13.07,5.374-38.22,7.465-56.07
					C179.67,241.813,178.946,241.713,178.142,241.873z"/>
				<path style="fill:#407BFF;" d="M196.578,221.87c0,0,3.132,54.927,3.198,77.33c0.069,23.302-5.125,99.601-5.125,99.601h-12.445
					c0,0-3.35-74.937-4.787-97.822c-1.567-24.949-6.67-79.108-6.67-79.108H196.578z"/>
				<path style="fill:#263238;" d="M196.855,393.843c0.057,0-0.503,5.167-0.503,5.167h-15.138l-0.587-4.611L196.855,393.843z"/>
				<path style="fill:#263238;" d="M184.421,130.162c0.083,0.587,0.463,1.031,0.848,0.992s0.63-0.547,0.547-1.135
					c-0.083-0.587-0.463-1.031-0.848-0.992C184.583,129.067,184.338,129.575,184.421,130.162z"/>
				<path style="fill:#630F0F;" d="M184.829,131.199c0,0,1.82,3.25,3.527,4.733c-0.906,1.076-2.741,0.815-2.741,0.815
					L184.829,131.199z"/>
				<path style="fill:#263238;" d="M184.658,126.328c0.103-0.038,0.187-0.123,0.217-0.237c0.049-0.185-0.061-0.377-0.246-0.426
					c-0.067-0.017-1.642-0.421-3.042,0.856c-0.142,0.13-0.152,0.35-0.023,0.492c0.13,0.142,0.35,0.152,0.492,0.022
					c1.122-1.025,2.38-0.701,2.393-0.698C184.521,126.356,184.594,126.351,184.658,126.328z"/>
				<path style="fill:#7F3E3B;" d="M164.584,130.931c1.465,7.165,1.958,11.419,6.139,14.746c6.288,5.004,14.757,0.786,15.465-6.588
					c0.637-6.638-1.866-17.24-9.359-19.384C169.447,117.592,163.118,123.766,164.584,130.931z"/>
				<path style="fill:#263238;" d="M180.039,131.997c-1.216,3.781-8.012,11.003-10.414,11.558c-2.402,0.556-8.988-5.139-9.586-8.114
					c-2.401-0.275-5.037-5.067-1.365-6.945c-2.693-1.371-1.98-8.515,3.497-8.001c-3.346-3.219,0.67-8.663,5.224-7.219
					c1.092-2.778,7.257-4.556,10.803-0.278c2.77-1.556,7.62,1.583,7.263,6.284c-0.244,3.216-3.189,5.841-5.345,6.306
					C181.273,127.012,180.039,131.997,180.039,131.997z"/>
				<path style="fill:#7F3E3B;" d="M176.369,131.004c0.4,1.884,1.544,3.57,2.772,4.617c1.848,1.575,3.333,0.294,3.29-1.877
					c-0.039-1.954-1.047-5.128-3.128-5.876C177.253,127.132,175.912,128.85,176.369,131.004z"/>
			</g>
		</g>
	</g>
</g>
</svg>
