<svg version="1.1" xmlns="http://www.w3.org/2000/svg" xmlns:xlink="http://www.w3.org/1999/xlink" x="0px" y="0px" style="enable-background:new 0 0 500 500;" xml:space="preserve" viewBox="0 54.95 500 372.62">
<g id="Background_Complete">
	<g>
		<rect y="382.398" style="fill:#EBEBEB;" width="500" height="0.25"/>
		<rect x="104.545" y="389.208" style="fill:#EBEBEB;" width="33.122" height="0.25"/>
		<rect x="171.14" y="398.369" style="fill:#EBEBEB;" width="40.749" height="0.25"/>
		<rect x="52.459" y="395.236" style="fill:#EBEBEB;" width="51.085" height="0.25"/>
		<rect x="356.762" y="390.888" style="fill:#EBEBEB;" width="93.14" height="0.25"/>
		<rect x="341.525" y="390.888" style="fill:#EBEBEB;" width="6.333" height="0.25"/>
		<rect x="277.213" y="395.111" style="fill:#EBEBEB;" width="42.231" height="0.25"/>
		<path style="fill:#EBEBEB;" d="M237.014,337.8H43.915c-3.147,0-5.708-2.56-5.708-5.708V60.66c0-3.147,2.561-5.708,5.708-5.708    h193.099c3.146,0,5.707,2.561,5.707,5.708v271.432C242.721,335.239,240.16,337.8,237.014,337.8z M43.915,55.203    c-3.01,0-5.458,2.448-5.458,5.458v271.432c0,3.01,2.448,5.458,5.458,5.458h193.099c3.009,0,5.457-2.448,5.457-5.458V60.66    c0-3.009-2.448-5.458-5.457-5.458H43.915z"/>
		<path style="fill:#EBEBEB;" d="M453.31,337.8H260.212c-3.147,0-5.707-2.56-5.707-5.708V60.66c0-3.147,2.561-5.708,5.707-5.708    H453.31c3.148,0,5.708,2.561,5.708,5.708v271.432C459.019,335.239,456.458,337.8,453.31,337.8z M260.212,55.203    c-3.009,0-5.457,2.448-5.457,5.458v271.432c0,3.01,2.448,5.458,5.457,5.458H453.31c3.01,0,5.458-2.448,5.458-5.458V60.66    c0-3.009-2.448-5.458-5.458-5.458H260.212z"/>
	</g>
	<g>
		
			<ellipse transform="matrix(0.984 -0.1779 0.1779 0.984 -28.0293 40.8384)" style="fill:#FAFAFA;" cx="213.705" cy="176.713" rx="39.62" ry="39.619"/>
		<g>
			<path style="fill:#F0F0F0;" d="M44.396,382.398h409.715c0,0-20.75-24.689-52.486-29.197s-86.663-7.282-86.663-7.282     s-8.544-37.799-45.162-39.533c-4.882-18.379-20.343-102.3-58.182-115.477c-37.839-13.178-36.616-41.885-68.758-54.022     c-32.143-12.137-69.849,79.51-77.305,105.074C47.653,303.34,44.396,382.398,44.396,382.398z"/>
			<path style="fill:#EBEBEB;" d="M65.553,241.965c1.697-5.847,4.992-15.158,9.435-25.883c1.038-0.489,2.148-0.936,3.332-1.342     c23.57-8.021,56.704,93.66,113.09,42.288c35.389-32.242,55.876-12.368,67.352,6.701c3.54,11.652,6.213,22.554,8.178,30.846     c-19.382,0-33.831-41.884-55.729-30.149c-29.343,15.73-79.099,32.042-103.157-0.718c-16.735-22.804-34.482-20.786-43.722-17.447     C64.735,244.816,65.138,243.39,65.553,241.965z"/>
			<path style="fill:#EBEBEB;" d="M57.754,273.789c34.616,3.069,43.832,100.673,164.891,68.204     c44.406-11.922,94.474,15.335,125.148,40.407h-56.697c-17.003-16.978-34.921-34.779-55.061-29.889     c-65.79,15.948-112.759,14.825-138.66-22.367c-13.012-18.716-30.649-24.916-44.955-26.456     C53.921,293.93,55.679,283.839,57.754,273.789z"/>
		</g>
		<path style="fill:#F5F5F5;" d="M428.767,90.388H294.79c0,0,0.809-10.192,18.374-13.232c-14.974-6.616,17.883-20.563,53.557-1.252    c-2.781-6.437,28.935-4.113,38.637,4.649C408.803,74.831,439.051,84.844,428.767,90.388z"/>
		<path style="fill:#F5F5F5;" d="M187.595,109.81h-74.881c0,0-17.558-3.512-15.29-12.799c2.268-9.288,28.785-1.548,28.785-1.548    s-8.04-12.964,17.636-9.288c25.676,3.677,28.179,16.528,28.179,16.528S205.74,99.583,187.595,109.81z"/>
		<path style="fill:#F5F5F5;" d="M426.625,243.614h-38.008c0,0-8.912-1.783-7.761-6.497c1.151-4.714,14.61-0.786,14.61-0.786    s-4.081-6.58,8.951-4.714c13.032,1.866,14.303,8.389,14.303,8.389S435.835,238.424,426.625,243.614z"/>
	</g>
</g>
<g id="Background_Simple" style="display:none;">
	<g style="display:inline;">
		<path style="fill:#407BFF;" d="M306.818,88.635c-43.401-19.003-103.954-7.851-152.102,15.34    c-124.983,59.652-64.943,224.467-9.647,224.642c52.419,6.6,70.577-39.879,100.939-54.353    C417.31,193.294,343.44,104.014,306.818,88.635z"/>
		<path style="opacity:0.9;fill:#FFFFFF;" d="M306.818,88.635c-43.401-19.003-103.954-7.851-152.102,15.34    c-124.983,59.652-64.943,224.467-9.647,224.642c52.419,6.6,70.577-39.879,100.939-54.353    C417.31,193.294,343.44,104.014,306.818,88.635z"/>
	</g>
</g>
<g id="Shadow_1_">
	<ellipse id="_x3C_Path_x3E__170_" style="fill:#F5F5F5;" cx="250" cy="416.238" rx="193.889" ry="11.323"/>
</g>
<g id="Beach_ball">
	<g>
		
			<ellipse transform="matrix(0.9996 -0.0266 0.0266 0.9996 -9.5202 3.6315)" style="fill:#407BFF;" cx="131.524" cy="359.09" rx="53.522" ry="53.522"/>
		
			<ellipse transform="matrix(0.6872 -0.7265 0.7265 0.6872 -219.7276 207.873)" style="opacity:0.5;fill:#FFFFFF;" cx="131.524" cy="359.09" rx="53.522" ry="43.791"/>
		
			<ellipse transform="matrix(0.6872 -0.7265 0.7265 0.6872 -219.7271 207.8718)" style="fill:#407BFF;" cx="131.524" cy="359.09" rx="53.522" ry="28.767"/>
		
			<ellipse transform="matrix(0.6872 -0.7265 0.7265 0.6872 -219.7268 207.8712)" style="opacity:0.5;fill:#FFFFFF;" cx="131.524" cy="359.09" rx="53.522" ry="12.292"/>
	</g>
</g>
<g id="Character_1_">
	<g>
		<g>
			<path style="fill:#407BFF;" d="M396.857,410.449c-0.619,0-1.24-0.212-1.747-0.645L219.442,259.748     c-1.131-0.966-1.265-2.665-0.299-3.796c0.967-1.13,2.667-1.263,3.795-0.298L398.606,405.71c1.131,0.966,1.265,2.665,0.299,3.796     C398.373,410.129,397.617,410.449,396.857,410.449z"/>
			<path style="fill:#407BFF;" d="M281.745,410.449c-0.596,0-1.186-0.198-1.671-0.581c-0.793-0.628-1.167-1.647-0.969-2.639     l16.819-83.963c0.292-1.458,1.716-2.401,3.168-2.111c1.458,0.292,2.403,1.71,2.111,3.169l-15.783,78.792l91.66-41.938     c1.356-0.62,2.949-0.023,3.568,1.328c0.618,1.352,0.023,2.95-1.328,3.568l-96.456,44.132     C282.507,410.369,282.125,410.449,281.745,410.449z"/>
		</g>
		<g>
			<path style="fill:#407BFF;" d="M221.19,257.701h-85.923c22.254,38.047,84.033,116.958,145.208,116.958h74.9     C306.988,374.658,243.445,295.748,221.19,257.701z"/>
			<path style="opacity:0.2;" d="M221.19,257.701h-85.923c22.254,38.047,84.033,116.958,145.208,116.958h74.9     C306.988,374.658,243.445,295.748,221.19,257.701z"/>
		</g>
		<g>
			<path style="fill:#FFC3BD;" d="M233.966,268.27l0.617-0.651l0.698-0.765c0.469-0.518,0.945-1.046,1.409-1.586     c0.925-1.083,1.854-2.175,2.735-3.303c1.783-2.239,3.436-4.569,4.955-6.938c0.762-1.185,1.467-2.392,2.127-3.61     c0.682-1.21,1.291-2.439,1.854-3.677c1.113-2.481,2.006-4.99,2.596-7.512l1.635,5.594c-0.476-0.734-1.849-1.922-3.361-2.919     c-1.556-1.013-3.3-2.034-5.139-2.962c-1.832-0.956-3.747-1.861-5.694-2.754l-5.872-2.64l-0.138-0.062     c-1.864-0.838-2.695-3.028-1.858-4.892c0.636-1.415,2.054-2.234,3.514-2.18c2.433,0.092,4.689,0.357,7.021,0.71     c2.314,0.359,4.62,0.844,6.945,1.455c2.313,0.645,4.658,1.38,7.028,2.447c2.373,1.122,4.833,2.315,7.387,4.852     c1.376,1.367,1.948,3.238,1.714,5.023l-0.079,0.572c-0.505,3.669-1.417,7.214-2.679,10.55c-1.234,3.351-2.768,6.522-4.505,9.525     c-1.717,3.019-3.667,5.853-5.75,8.566c-1.054,1.348-2.129,2.677-3.276,3.956c-0.572,0.641-1.149,1.28-1.755,1.908l-0.927,0.941     l-1.048,1.016c-2.917,2.828-7.574,2.755-10.401-0.161c-2.751-2.837-2.757-7.321-0.071-10.166L233.966,268.27z"/>
			<path style="fill:#FFC3BD;" d="M236.545,227.553l-8.602-1.062l-2.854,10.366c0,0,8.677,2.237,12.441-3.38L236.545,227.553z"/>
			<polygon style="fill:#FFC3BD;" points="221.234,226.427 220.119,235.116 225.089,236.857 227.943,226.491    "/>
			<g>
				<path style="fill:#407BFF;" d="M246.51,349.975c0,0-23.265-18.143-43.048-53.101c-4.684-8.278-0.889-18.828,7.997-22.219      c7.427-2.834,15.427-5.528,21.95-7.605c6.59-2.098,13.815,0.346,17.663,6.093c8.061,12.038,16.033,28.916,40.743,49.189      c1.432,1.175,1.206,3.434-0.438,4.29L246.51,349.975z"/>
				<path style="opacity:0.8;fill:#FFFFFF;" d="M246.51,349.975c0,0-23.265-18.143-43.048-53.101      c-4.684-8.278-0.889-18.828,7.997-22.219c7.427-2.834,15.427-5.528,21.95-7.605c6.59-2.098,13.815,0.346,17.663,6.093      c8.061,12.038,16.033,28.916,40.743,49.189c1.432,1.175,1.206,3.434-0.438,4.29L246.51,349.975z"/>
			</g>
			<path style="opacity:0.2;" d="M201.726,292.35c2.929-9.147,5.441-6.39,6.589-5.478c8.936,7.099,13.571,22.417,12.692,36.284     c-5.729-7.34-11.818-16.161-17.62-26.423C202.592,295.316,202.04,293.845,201.726,292.35z"/>
			<path style="fill:#FFC3BD;" d="M203.615,250.805c4.654,5.939,11.759,17.11,9.492,23.227c5.346,2.073,11.212,3.119,19.037,0.307     c7.825-2.812,5.192-5.457,1.704-7.423c-8.117,1.176-10.998-5.044-12.372-10.558L203.615,250.805z"/>
			<path style="opacity:0.2;" d="M221.486,256.41l-9.964-3.099c0.172,1.141,1.345,5.585,2.679,7.64     c2.12,3.239,7.78,4.993,11.965,4.164C223.606,263.049,222.293,259.617,221.486,256.41z"/>
			<path style="fill:#263238;" d="M225.04,227.817c3.618,2.913,5.297,9.552,3.975,14.176c-6.549-10.332-6.632-13.379-6.632-13.379     L225.04,227.817z"/>
			<path style="fill:#FFC3BD;" d="M202.554,242.144c2.316,9.392,3.192,14.982,8.903,19.209c8.591,6.359,19.588,0.476,20.14-9.274     c0.497-8.777-3.374-22.661-13.411-25.203C208.297,224.371,200.238,232.752,202.554,242.144z"/>
			<path style="fill:#263238;" d="M204.192,250.787c2.451-3.368,3.65-10.023,2.212-14.922c5.978-1.538,24.569-2.614,19.488-12.597     c-5.081-9.983-11.986-5.493-12.135-1.913c-11.373-3.303-19.01,0.478-15.901,3.945c-11.717,4.244-7.592,13.749-4.962,14.885     c-4.065,4.842-2.272,15.662,4.065,15.901c6.337,0.239,9.078,5.08,12.665,3.705C208.907,256.161,204.192,250.787,204.192,250.787z     "/>
			<path style="fill:#263238;" d="M216.393,243.192c0.104,0.726,0.572,1.26,1.047,1.192c0.475-0.068,0.775-0.711,0.671-1.437     c-0.104-0.726-0.572-1.26-1.047-1.192C216.589,241.823,216.289,242.466,216.393,243.192z"/>
			<path style="fill:#263238;" d="M225.307,241.472c0.104,0.726,0.572,1.259,1.047,1.192c0.475-0.068,0.775-0.711,0.671-1.437     c-0.104-0.726-0.572-1.26-1.047-1.192C225.504,240.103,225.204,240.746,225.307,241.472z"/>
			<path style="fill:#FFC3BD;" d="M199.666,252.175c1.472,1.866,3.645,2.927,5.559,3.187c2.879,0.391,3.791-2.234,2.549-4.705     c-1.118-2.224-3.962-5.108-6.639-4.365C198.498,247.025,197.983,250.042,199.666,252.175z"/>
			<path style="fill:#ED847E;" d="M222.429,242.277c0,0,2.581,4.216,4.919,6.107c-1.143,1.454-3.589,1.179-3.589,1.179     L222.429,242.277z"/>
			<path style="fill:#263238;" d="M220.02,253.456c-3.03-0.007-4.774-1.863-4.855-1.951c-0.088-0.096-0.084-0.239,0.009-0.322     c0.093-0.082,0.24-0.071,0.328,0.024c0.02,0.022,2.056,2.175,5.459,1.729c0.126-0.016,0.247,0.071,0.27,0.196     c0.023,0.125-0.061,0.24-0.187,0.256C220.688,253.436,220.346,253.456,220.02,253.456z"/>
			<path style="fill:#263238;" d="M211.054,240.467c-0.077,0-0.156-0.019-0.23-0.06c-0.229-0.124-0.32-0.403-0.204-0.623     c1.159-2.198,3.287-2.351,3.377-2.357c0.255-0.016,0.484,0.176,0.512,0.428c0.028,0.251-0.155,0.467-0.409,0.484l0,0     c-0.07,0.005-1.727,0.142-2.652,1.896C211.369,240.384,211.216,240.467,211.054,240.467z"/>
			<path style="fill:#263238;" d="M228.327,238.09c-0.146,0.027-0.307-0.017-0.424-0.131c-1.496-1.446-3.127-1.166-3.196-1.153     c-0.249,0.046-0.499-0.117-0.559-0.363c-0.06-0.247,0.091-0.485,0.339-0.534c0.09-0.015,2.175-0.398,4.049,1.414     c0.187,0.181,0.197,0.47,0.022,0.646C228.493,238.034,228.413,238.074,228.327,238.09z"/>
			<g>
				<polygon style="fill:#FFC3BD;" points="388.933,404.671 400.301,402.577 372.097,376.622 364.179,387.991     "/>
				<path style="fill:#FFC3BD;" d="M388.453,410.829c-0.905-2.602-0.212-6.109-2.766-10.12c0,0,6.022-6.071,8.499-3.396      c2.476,2.674,10.262,5.406,19.703,3.246c1.321-0.302,1.721,3.651-1.248,4.67c-4.91,1.685-8.541,2.854-12.728,4.291      c-3.581,1.229-4.225,2.331-7.002,3.501C390.593,413.997,389.363,413.442,388.453,410.829z"/>
				<path style="fill:#263238;" d="M281.204,331.917c0,0,37.202,5.032,59.061,12.702c14.512,5.092,42.007,39.215,42.007,39.215      l-11.119,11.119c0,0-27.592-18.235-47.832-28.095c-35.436,6.999-71.338,9.325-76.813-16.882      C254.682,344.597,281.204,331.917,281.204,331.917z"/>
				<path style="opacity:0.2;" d="M334.715,344.17l-3.82,26.578c6.166,3.282,12.589,7.005,18.443,10.513L334.715,344.17z"/>
				<polygon style="fill:#407BFF;" points="387.921,384.478 371.897,400.239 366.494,395.078 382.956,378.246     "/>
			</g>
			<g>
				<path style="fill:#263238;" d="M292.203,323.787c0,0,42.173-13.566,64.032-5.896c14.512,5.092,1.113,53.449,1.113,53.449      l-19.76,2.421c0,0-2.192-19.279-4.035-29.11c-17.934,7.5-70.569,23.401-76.044-2.806      C265.681,336.467,292.203,323.787,292.203,323.787z"/>
			</g>
			<g>
				<polygon style="fill:#FFC3BD;" points="345.434,400.239 354.854,400.662 354.06,369.124 340.241,370.117     "/>
				<path style="fill:#FFC3BD;" d="M342.031,406.272c0.792-2.638,3.41-5.072,3.694-9.819c0,0,8.438-1.386,8.876,2.233      c0.438,3.618,5.142,10.396,14.056,14.184c1.248,0.53-0.747,3.966-3.749,3.051c-4.966-1.514-8.592-2.697-12.827-3.988      c-3.621-1.104-4.79-0.589-7.724-1.271C341.906,410.093,341.235,408.923,342.031,406.272z"/>
				<polygon style="fill:#407BFF;" points="359.304,374.209 337.097,377.677 335.715,370.333 358.901,366.251     "/>
			</g>
			<g>
				<path style="fill:#FFC3BD;" d="M215.663,288.656c0.566,6.51,1.13,13.205,1.856,19.719c0.341,3.267,0.776,6.508,1.24,9.672      c0.471,3.129,1.088,6.307,1.826,8.81c0.182,0.604,0.384,1.152,0.523,1.483c0.064,0.158,0.122,0.271,0.067,0.215      c-0.03-0.03,0.028,0.05-0.164-0.176c-0.071-0.077-0.146-0.151-0.225-0.22l-0.162-0.143c-0.052-0.043-0.106-0.083-0.162-0.12      l-0.099-0.069c-0.069-0.043-0.14-0.077-0.154-0.084c-0.147-0.06-0.074,0.01,0.074,0.082c0.135,0.076,0.368,0.168,0.618,0.261      c0.516,0.194,1.158,0.383,1.839,0.554c1.372,0.343,2.9,0.62,4.456,0.862c1.56,0.259,3.161,0.482,4.78,0.677      c6.478,0.809,13.206,1.346,19.852,2.044l0.072,0.007c2.019,0.212,3.484,2.021,3.273,4.04c-0.176,1.674-1.453,2.967-3.033,3.239      c-6.863,1.18-13.666,1.822-20.696,2.034c-3.532,0.074-7.049,0.065-10.936-0.425c-0.982-0.128-1.995-0.289-3.108-0.547      c-0.563-0.139-1.138-0.296-1.791-0.526c-0.642-0.226-1.345-0.501-2.215-1c-0.2-0.109-0.443-0.264-0.684-0.43l-0.357-0.252      l-0.404-0.325c-0.137-0.116-0.254-0.213-0.4-0.353c-0.151-0.146-0.298-0.297-0.441-0.452c-0.344-0.374-0.403-0.472-0.562-0.668      c-0.568-0.728-0.941-1.346-1.274-1.933c-0.648-1.165-1.087-2.186-1.478-3.171c-0.765-1.957-1.314-3.771-1.783-5.566      c-0.473-1.792-0.876-3.548-1.243-5.293c-0.747-3.487-1.281-6.939-1.796-10.377c-0.96-6.9-1.658-13.672-2.007-20.651      c-0.203-4.061,2.925-7.518,6.986-7.721c3.966-0.198,7.355,2.779,7.701,6.701L215.663,288.656z"/>
				<g>
					<g>
						<path style="fill:#407BFF;" d="M316.556,315.965l20.915,9.653c1.288,0.594,2.197,2.476,1.329,2.75l-59.532,18.609        c-0.702,0.222-1.696-0.013-2.761-0.651l-17.505-10.493c-1.251-0.75-1.969-2.466-1.134-2.712L316.556,315.965z"/>
						<path style="opacity:0.4;" d="M316.556,315.965l20.915,9.653c1.288,0.594,2.197,2.476,1.329,2.75l-59.532,18.609        c-0.702,0.222-1.696-0.013-2.761-0.651l-17.505-10.493c-1.251-0.75-1.969-2.466-1.134-2.712L316.556,315.965z"/>
					</g>
					<g>
						<g>
							<g>
								
									<rect x="329.866" y="284.236" transform="matrix(0.9569 -0.2903 0.2903 0.9569 -68.3529 108.7368)" style="fill:#407BFF;" width="4.981" height="1.077"/>
								
									<rect x="306.445" y="289.256" transform="matrix(0.957 -0.2903 0.2903 0.957 -70.5191 104.1325)" style="fill:#407BFF;" width="18.678" height="1.077"/>
								<path style="fill:#407BFF;" d="M341.553,285.361l-61.356,18.585c-0.768,0.232-1.425,1.049-1.468,1.826l-2.159,39.153          c-0.043,0.777,0.545,1.218,1.313,0.987l61.356-18.586c0.768-0.232,1.425-1.049,1.468-1.826l2.159-39.153          C342.909,285.571,342.321,285.13,341.553,285.361z"/>
							</g>
							<path style="opacity:0.4;" d="M278.73,305.773l-2.159,39.153c-0.043,0.777,0.545,1.219,1.313,0.987l2.314-41.966         C279.43,304.179,278.773,304.996,278.73,305.773z"/>
						</g>
					</g>
				</g>
				<path style="fill:#FFC3BD;" d="M250.556,331.9l8.4-1.644l-0.433,11.003c0,0-9.511,0.819-10.983-3.545l0.827-3.685      C248.611,332.948,249.469,332.113,250.556,331.9z"/>
				<polygon style="fill:#FFC3BD;" points="265.253,330.962 268.394,339.119 258.523,341.259 258.956,330.256     "/>
			</g>
		</g>
		<g>
			<g>
				<path style="fill:#407BFF;" d="M310.935,410.449c-0.619,0-1.24-0.212-1.747-0.645L133.52,259.748      c-1.131-0.966-1.265-2.665-0.299-3.796c0.967-1.13,2.667-1.263,3.795-0.298L312.684,405.71c1.131,0.966,1.265,2.665,0.299,3.796      C312.45,410.129,311.694,410.449,310.935,410.449z"/>
				<path style="opacity:0.3;fill:#FFFFFF;" d="M310.935,410.449c-0.619,0-1.24-0.212-1.747-0.645L133.52,259.748      c-1.131-0.966-1.265-2.665-0.299-3.796c0.967-1.13,2.667-1.263,3.795-0.298L312.684,405.71c1.131,0.966,1.265,2.665,0.299,3.796      C312.45,410.129,311.694,410.449,310.935,410.449z"/>
			</g>
			<g>
				<path style="fill:#407BFF;" d="M195.822,410.449c-0.596,0-1.187-0.198-1.671-0.581c-0.793-0.628-1.167-1.647-0.969-2.639      l16.819-83.963c0.291-1.458,1.722-2.401,3.168-2.111c1.458,0.292,2.403,1.71,2.111,3.169l-15.783,78.792l91.659-41.938      c1.355-0.62,2.949-0.023,3.568,1.328c0.618,1.352,0.023,2.95-1.328,3.568l-96.455,44.132      C196.584,410.369,196.202,410.449,195.822,410.449z"/>
				<path style="opacity:0.3;fill:#FFFFFF;" d="M195.822,410.449c-0.596,0-1.187-0.198-1.671-0.581      c-0.793-0.628-1.167-1.647-0.969-2.639l16.819-83.963c0.291-1.458,1.722-2.401,3.168-2.111c1.458,0.292,2.403,1.71,2.111,3.169      l-15.783,78.792l91.659-41.938c1.355-0.62,2.949-0.023,3.568,1.328c0.618,1.352,0.023,2.95-1.328,3.568l-96.455,44.132      C196.584,410.369,196.202,410.449,195.822,410.449z"/>
			</g>
		</g>
	</g>
</g>
<g id="E-mails">
	<g>
		<path style="fill:#407BFF;" d="M329.978,257.161c-0.188,0-0.359-0.105-0.445-0.272l-11.26-21.976    c-26.558-5.48-45.806-29.12-45.806-56.302c0-31.706,25.799-57.5,57.511-57.5c31.706,0,57.5,25.794,57.5,57.5    c0,27.182-19.248,50.821-45.805,56.302l-11.25,21.976C330.338,257.056,330.166,257.161,329.978,257.161z M329.978,122.111    c-31.16,0-56.511,25.346-56.511,56.5c0,26.788,19.026,50.074,45.239,55.37c0.149,0.03,0.277,0.127,0.347,0.262l10.925,21.321    l10.914-21.321c0.069-0.135,0.197-0.232,0.347-0.262c26.213-5.296,45.239-28.582,45.239-55.37    C386.478,147.457,361.133,122.111,329.978,122.111z"/>
		<g>
			<g>
				<g>
					<path style="fill:#407BFF;" d="M286.776,181.643l6.904,28.383c0.562,2.31,2.911,3.74,5.221,3.178l64.592-15.711       c2.31-0.562,3.74-2.911,3.178-5.22l-6.904-28.383c-0.135-0.553-0.372-1.058-0.689-1.493c-0.997-1.388-2.775-2.112-4.531-1.685       l-64.592,15.711c-1.753,0.426-3.003,1.887-3.252,3.574C286.621,180.532,286.641,181.086,286.776,181.643z"/>
					<path style="opacity:0.1;" d="M286.702,179.997l45.439,18.831l26.937-36.431c-0.997-1.388-2.775-2.112-4.531-1.685       l-64.592,15.711C288.201,176.849,286.951,178.309,286.702,179.997z"/>
					<g>
						<path style="fill:#407BFF;" d="M286.702,179.997l46.017,14.963l26.359-32.564c-0.997-1.388-2.775-2.112-4.531-1.685        l-64.592,15.711C288.201,176.849,286.951,178.309,286.702,179.997z"/>
						<path style="opacity:0.1;fill:#FFFFFF;" d="M286.702,179.997l46.017,14.963l26.359-32.564        c-0.997-1.388-2.775-2.112-4.531-1.685l-64.592,15.711C288.201,176.849,286.951,178.309,286.702,179.997z"/>
					</g>
				</g>
				<polygon style="opacity:0.1;" points="362.005,173.09 308.297,171.961 324.947,167.911 361.284,170.128     "/>
			</g>
			<g>
				<path style="fill:#407BFF;" d="M313.725,137.703l-1.729,25.949c-0.141,2.112,1.472,3.954,3.583,4.095l59.054,3.935      c2.112,0.141,3.954-1.472,4.095-3.583l1.729-25.949c0.034-0.505-0.033-0.998-0.186-1.452c-0.476-1.446-1.791-2.536-3.397-2.643      l-59.054-3.935c-1.603-0.107-3.055,0.799-3.718,2.166C313.89,136.718,313.759,137.194,313.725,137.703z"/>
				<path style="opacity:0.1;" d="M314.102,136.285l33.55,28.144l32.619-23.732c-0.476-1.446-1.791-2.536-3.397-2.643l-59.054-3.935      C316.217,134.013,314.765,134.919,314.102,136.285z"/>
				<g>
					<path style="fill:#407BFF;" d="M314.102,136.285l43.342,23.381l22.827-18.97c-0.476-1.446-1.791-2.536-3.397-2.643       l-59.054-3.935C316.217,134.013,314.765,134.919,314.102,136.285z"/>
					<path style="opacity:0.2;fill:#FFFFFF;" d="M314.102,136.285l43.342,23.381l22.827-18.97c-0.476-1.446-1.791-2.536-3.397-2.643       l-59.054-3.935C316.217,134.013,314.765,134.919,314.102,136.285z"/>
				</g>
			</g>
		</g>
	</g>
</g>
</svg>