<svg xmlns="http://www.w3.org/2000/svg" viewBox="0 0 36 36" id="microsoft-excel"><path fill="#EFEFEF" d="M1.003 14.311c3.253 6.104 2.324 11.981 3.891 14.923s6.551 8.218 20.083 1.008 11.09-16.579 9.365-19.815C26.27-4.724-4.758 3.5 1.003 14.311z"></path><path fill="#A4AFC1" d="m29.036 6.055.059-2 1 .03-.06 2zM31.219 8.37l.03-1 1.998.059-.029 1zM5.809 7.07c-.827 0-1.5-.673-1.5-1.5s.673-1.5 1.5-1.5 1.5.673 1.5 1.5-.673 1.5-1.5 1.5zm0-2a.5.5 0 1 0 .002 1.002.5.5 0 0 0-.002-1.002z"></path><path fill="#2FDF84" d="M19.5 7.25v21.5L6.75 27.02V9.227z"></path><path fill="#F3F3F1" d="M19.5 8.733h9.75v17.299H19.5z"></path><path fill="#00B871" d="M9 27.02V9.227l10.5-1.628V7.25L6.75 9.227V27.02l12.75 1.73v-.305z"></path><path fill="#D5DBE1" d="M19.5 8.733h2.25v17.299H19.5z"></path><path d="M19.5 29.5a.695.695 0 0 1-.101-.007l-12.75-1.73A.75.75 0 0 1 6 27.02V9.227c0-.37.27-.685.635-.741l12.75-1.977a.752.752 0 0 1 .866.741v21.5a.753.753 0 0 1-.751.75zm-12-3.135 11.25 1.527V8.125L7.5 9.87v16.495z"></path><path d="M29.25 26.782H19.5a.75.75 0 0 1-.75-.75V8.733a.75.75 0 0 1 .75-.75h9.75a.75.75 0 0 1 .75.75v17.299a.75.75 0 0 1-.75.75zm-9-1.5h8.25V9.483h-8.25v15.799z"></path><path d="M23.5 8.733H25v17.299h-1.5z"></path><path d="M19.5 11.442h9.75v1.5H19.5zM19.5 14.902h9.75v1.5H19.5zM19.5 18.362h9.75v1.5H19.5zM19.5 21.822h9.75v1.5H19.5zM9.123 13.839l1.256-.822 5.5 8.402-1.257.822z"></path><path d="m9.123 21.421 5.497-8.404 1.256.821-5.496 8.405z"></path></svg>